<?xml version="1.0" encoding="UTF-8"?>
<svg width="1000px" height="340px" viewBox="0 0 1000 340" version="1.1" xmlns="http://www.w3.org/2000/svg" xmlns:xlink="http://www.w3.org/1999/xlink">
    <title>Group</title>
    <defs>
        <path d="M113.13317,57.0665926 C113.13317,88.1137778 87.9198113,113.300815 56.8021132,113.300815 C25.6951698,113.300815 0.473207547,88.1137778 0.473207547,57.0665926 C0.473207547,25.9807407 25.6951698,0.804444444 56.8021132,0.804444444 C87.9198113,0.804444444 113.13317,25.985037 113.13317,57.0665926" id="path-1"></path>
        <path d="M74.3014286,36.8914286 C74.3014286,57.2185714 57.81,73.68 37.5,73.68 C17.19,73.68 0.722142857,57.2185714 0.722142857,36.8914286 C0.722142857,16.6114286 17.1921429,0.141428571 37.5,0.141428571 C57.8078571,0.141428571 74.3014286,16.6114286 74.3014286,36.8914286" id="path-3"></path>
        <path d="M45.5066818,23.2690909 C45.5066818,35.6856364 35.4315909,45.7692727 23.0107727,45.7692727 C10.5814091,45.7692727 0.508454545,35.6856364 0.508454545,23.2690909 C0.508454545,10.8290455 10.5814091,0.758227273 23.0107727,0.758227273 C35.4315909,0.760363636 45.5066818,10.8397273 45.5066818,23.2690909" id="path-5"></path>
        <path d="M34.5891765,17.6664118 C34.5891765,27.3974118 26.9127059,35.2805882 17.4595294,35.2805882 C8.01482353,35.2805882 0.323529412,27.3887059 0.323529412,17.6664118 C0.323529412,7.95064706 8.01482353,0.0587647059 17.4595294,0.0587647059 C26.9127059,0.0587647059 34.5891765,7.95064706 34.5891765,17.6664118" id="path-7"></path>
    </defs>
    <g id="Page-1" stroke="none" stroke-width="1" fill="none" fill-rule="evenodd">
        <g id="Artboard" transform="translate(-780.000000, -709.000000)">
            <g id="Group" transform="translate(780.000000, 709.000000)">
                <path d="M52.9749431,281.612754 L28.6087067,335 L0,335 L101.993546,113 L204,335 L175.356872,335 L151.007846,281.612754 L52.9749431,281.612754 Z M101.978486,171.17258 L64.0242976,257.310725 L139.934827,257.310725 L101.978486,171.17258 Z" id="path1874" fill="#E20000" fill-rule="nonzero"></path>
                <polygon id="polygon1876" fill="#E20000" fill-rule="nonzero" points="593.445657 208.255915 673.761701 208.255915 673.761701 232.557827 593.445657 232.557827 593.445657 310.702378 681 310.702378 681 335 567 335 567 122 681 122 681 146.312639 593.445657 146.312639"></polygon>
                <path d="M351.38122,155.416105 C340.543344,148.438184 323.988998,141.262916 303.917982,141.262916 C256.100284,141.262916 219.605965,181.09048 219.605965,228.262771 C219.605965,274.862329 255.81242,314.724213 303.348698,314.724213 C324.272566,314.724213 339.643231,307.439547 351.488632,299.453441 L365.991407,320.644614 C344.979461,334.548974 322.85043,339 304.180067,339 C243.369808,339 193,290.710125 193,229.144396 C193,166.132888 243.65982,117 306.461499,117 C325.116825,117 345.282363,121.457461 366,134.445876 L351.38122,155.416105 Z" id="path1878" fill="#E20000" fill-rule="nonzero"></path>
                <path d="M524.378527,155.416105 C513.53595,148.436039 496.980988,141.262916 476.907076,141.262916 C429.089745,141.262916 392.598363,181.09048 392.598363,228.262771 C392.598363,274.862329 428.80187,314.724213 476.322732,314.724213 C497.271011,314.724213 512.635804,307.439547 524.462311,299.453441 L538.989258,320.644614 C517.98942,334.548974 495.850971,339 477.173468,339 C416.348053,339 366,290.710125 366,229.144396 C366,166.132888 416.653114,117 479.450688,117 C498.121746,117 518.292333,121.457461 539,134.445876 L524.378527,155.416105 Z" id="path1880" fill="#E20000" fill-rule="nonzero"></path>
                <path d="M533,228.010732 C533,258.911725 507.910729,284 476.986045,284 C446.057067,284 421,258.911725 421,228.010732 C421,197.071103 446.057067,172 476.986045,172 C507.910729,172.002146 533,197.071103 533,228.010732" id="path1882" fill="#949CC0" fill-rule="nonzero"></path>
                <path d="M422,228.009704 C422,197.073146 446.840954,172 477.505343,172 C508.135538,172 533,197.073146 533,228.009704 C533,258.92901 508.135538,284 477.505343,284 C446.849502,284 422,258.920384 422,228.009704" id="path1884" fill="#959DC1" fill-rule="nonzero"></path>
                <path d="M422,227.48819 C422,196.830332 446.855104,172 477.502147,172 C508.151336,172 533,196.826037 533,227.48819 C533,258.131018 508.153483,283 477.502147,283 C446.855104,283 422,258.131018 422,227.48819" id="path1886" fill="#969EC1" fill-rule="nonzero"></path>
                <path d="M422,228.004276 C422,197.632099 446.641351,173 477.013895,173 C507.373613,173 532,197.629961 532,228.004276 C532,258.378591 507.373613,283 477.013895,283 C446.641351,283 422,258.376453 422,228.004276" id="path1888" fill="#969EC2" fill-rule="nonzero"></path>
                <path d="M422,228.00537 C422,197.623435 446.625552,173 476.99141,173 C507.361563,173 532,197.627731 532,228.00537 C532,258.383008 507.359416,283 476.99141,283 C446.625552,283.004296 422,258.383008 422,228.00537" id="path1890" fill="#979FC2" fill-rule="nonzero"></path>
                <path d="M423,227.489308 C423,197.400879 447.397783,173 477.493586,173 C507.595802,173 532,197.400879 532,227.489308 C532,257.573462 507.595802,282 477.493586,282 C447.391369,282.006413 423,257.579877 423,227.489308" id="path1892" fill="#98A0C3" fill-rule="nonzero"></path>
                <path d="M423,227.493555 C423,197.394808 447.401735,173 477.496777,173 C507.589672,173 532,197.394808 532,227.493555 C532,257.588005 507.59182,282 477.496777,282 C447.401735,281.997852 423,257.588005 423,227.493555" id="path1894" fill="#99A1C3" fill-rule="nonzero"></path>
                <path d="M423,228.004277 C423,198.181307 447.170135,174 477.001069,174 C506.827726,174 531,198.181307 531,228.004277 C531,257.82297 506.827726,282 477.001069,282 C447.17869,282 423,257.827248 423,228.004277" id="path1896" fill="#9AA1C4" fill-rule="nonzero"></path>
                <path d="M423,228.002149 C423,198.191484 447.180708,174 476.990332,174 C506.817144,174 531,198.191484 531,228.002149 C531,257.812813 506.819292,282 476.99248,282 C447.180708,282 423,257.812813 423,228.002149" id="path1898" fill="#9BA2C4" fill-rule="nonzero"></path>
                <path d="M424,227.495721 C424,197.9368 447.966939,174 477.496792,174 C507.037338,174 531,197.941079 531,227.495721 C531,257.039667 507.039477,281 477.496792,281 C447.966939,281 424,257.039667 424,227.495721" id="path1900" fill="#9CA3C5" fill-rule="nonzero"></path>
                <path d="M424,227.511824 C424,197.961224 447.94377,174 477.491402,174 C507.060529,174 531,197.961224 531,227.511824 C531,257.062423 507.062678,281 477.493551,281 C447.94592,281 424,257.064573 424,227.511824" id="path1902" fill="#9DA4C5" fill-rule="nonzero"></path>
                <path d="M424,228.00107 C424,198.740508 447.745232,175 477.007487,175 C506.286856,175 530,198.746927 530,228.00107 C530,257.255213 506.280438,281 477.007487,281 C447.743093,281 424,257.257352 424,228.00107" id="path1904" fill="#9EA4C6" fill-rule="nonzero"></path>
                <path d="M424,228.003226 C424,198.731664 447.736605,175 476.993551,175 C506.276293,175 530,198.729514 530,228.003226 C530,257.287691 506.276293,281 476.993551,281 C447.734455,281 424,257.294143 424,228.003226" id="path1906" fill="#9EA5C7" fill-rule="nonzero"></path>
                <path d="M425,227.5 C425,198.505482 448.501936,175 477.493579,175 C506.489503,175 530,198.505482 530,227.5 C530,256.490238 506.491643,280 477.493579,280 C448.501936,280.00214 425,256.490238 425,227.5" id="path1908" fill="#9FA6C7" fill-rule="nonzero"></path>
                <path d="M425,227.482797 C425,198.518985 448.515423,175 477.491397,175 C506.501782,175 530,198.527587 530,227.482797 C530,256.493917 506.493179,280 477.491397,280 C448.517574,280 425,256.493917 425,227.482797" id="path1910" fill="#A0A7C8" fill-rule="nonzero"></path>
                <path d="M425,227.98073 C425,199.263609 448.274254,176 476.980737,176 C505.697921,176 529,199.263609 529,227.98073 C529,256.732109 505.695781,280 476.980737,280 C448.265693,280 425,256.729968 425,227.98073" id="path1912" fill="#A1A8C8" fill-rule="nonzero"></path>
                <path d="M425,227.981716 C425,199.284866 448.284352,176 477.013979,176 C505.715648,176 529,199.284866 529,227.981716 C529,256.710832 505.715648,280 477.013979,280 C448.286503,279.995698 425,256.710832 425,227.981716" id="path1914" fill="#A2A8C9" fill-rule="nonzero"></path>
                <path d="M426,227.475375 C426,199.047109 449.059222,176 477.492506,176 C505.930073,176 529,199.055675 529,227.475375 C529,255.940043 505.932214,279 477.492506,279 C449.059222,279 426,255.940043 426,227.475375" id="path1916" fill="#A3A9C9" fill-rule="nonzero"></path>
                <path d="M529,227.481706 C529,255.953758 505.943285,279 477.494621,279 C449.054563,279 426,255.95591 426,227.481706 C426,199.041937 449.054563,176 477.494621,176 C505.943285,176 529,199.041937 529,227.481706" id="path1918" fill="#A4AACA" fill-rule="nonzero"></path>
                <path d="M426,227.981774 C426,199.834157 448.81906,177 476.989285,177 C505.161652,177 528,199.834157 528,227.981774 C528,256.193719 505.163795,279 476.989285,279 C448.821203,279 426,256.193719 426,227.981774" id="path1920" fill="#A3A9C9" fill-rule="nonzero"></path>
                <path d="M426,227.984905 C426,199.83463 448.837204,177 476.994611,177 C505.164951,177 528,199.83463 528,227.984905 C528,256.16537 505.164951,279 476.994611,279 C448.828582,279 426,256.16537 426,227.984905" id="path1922" fill="#A2A8C9" fill-rule="nonzero"></path>
                <path d="M427,227.483893 C427,199.61864 449.617197,177 477.493558,177 C505.384951,177 528,199.62723 528,227.483893 C528,255.398541 505.387098,278 477.493558,278 C449.615049,278 427,255.398541 427,227.483893" id="path1924" fill="#A1A8C8" fill-rule="nonzero"></path>
                <path d="M427,227.982885 C427,200.3803 449.377174,178 477.007486,178 C504.629243,178 527,200.3803 527,227.982885 C527,255.6197 504.629243,278 477.007486,278 C449.377174,278 427,255.6197 427,227.982885" id="path1926" fill="#A0A7C8" fill-rule="nonzero"></path>
                <path d="M427,227.975249 C427,200.374793 449.398399,178 477.00753,178 C504.608055,178 527,200.374793 527,227.975249 C527,255.627359 504.608055,278 477.00753,278 C449.400551,278 427,255.620903 427,227.975249" id="path1928" fill="#9FA6C7" fill-rule="nonzero"></path>
                <path d="M428,227.475352 C428,200.16146 450.155449,178 477.5,178 C504.842408,178 527,200.16146 527,227.475352 C527,254.83854 504.840266,277 477.5,277 C450.161877,277 428,254.834253 428,227.475352" id="path1930" fill="#9EA5C7" fill-rule="nonzero"></path>
                <path d="M428,227.48275 C428,200.176569 450.157841,178 477.489222,178 C504.818447,178 527,200.176569 527,227.48275 C527,254.84068 504.835692,277 477.489222,277 C450.157841,276.997844 428,254.836368 428,227.48275" id="path1932" fill="#9EA4C6" fill-rule="nonzero"></path>
                <path d="M428,227.984966 C428,200.938856 449.942638,179 476.991411,179 C504.061656,179 526,200.938856 526,227.984966 C526,255.061144 504.061656,277 476.991411,277 C449.940491,277 428,255.061144 428,227.984966" id="path1934" fill="#9DA4C5" fill-rule="nonzero"></path>
                <path d="M429,227.482892 C429,200.722354 450.727367,179 477.502139,179 C504.308991,179 526,200.722354 526,227.482892 C526,254.290476 504.304714,276 477.502139,276 C450.727367,275.997862 429,254.290476 429,227.482892" id="path1936" fill="#9CA3C5" fill-rule="nonzero"></path>
                <path d="M429,227.484941 C429,200.720014 450.709288,179 477.488165,179 C504.28856,179 526,200.72862 526,227.484941 C526,254.284289 504.275649,276 477.488165,276 C450.707136,275.997849 429,254.284289 429,227.484941" id="path1938" fill="#9BA2C4" fill-rule="nonzero"></path>
                <path d="M429,227.985 C429,201.492857 450.491418,180 476.996786,180 C503.525724,180 525,201.490714 525,227.985 C525,254.524286 503.527866,276 476.996786,276 C450.493561,276 429,254.517857 429,227.985" id="path1940" fill="#9AA1C4" fill-rule="nonzero"></path>
                <path d="M429,227.982748 C429,201.481175 450.486649,180 476.988142,180 C503.506883,180 525,201.481175 525,227.982748 C525,254.518825 503.506883,276 476.988142,276 C450.488805,275.99353 429,254.516668 429,227.982748" id="path1942" fill="#99A1C3" fill-rule="nonzero"></path>
                <path d="M430,227.482823 C430,201.264747 451.277596,180 477.49034,180 C503.720258,180 525,201.264747 525,227.482823 C525,253.748135 503.720258,275 477.49034,275 C451.266863,274.997853 430,253.748135 430,227.482823" id="path1944" fill="#98A0C3" fill-rule="nonzero"></path>
                <path d="M430,227.982899 C430,202.06845 451.039989,181 476.993585,181 C502.964287,181 524,202.074862 524,227.982899 C524,253.963615 502.964287,275 476.993585,275 C451.039989,275 430,253.963615 430,227.982899" id="path1946" fill="#979FC2" fill-rule="nonzero"></path>
                <path d="M430,227.982787 C430,202.049304 451.027533,181 476.983865,181 C502.942348,181 524,202.049304 524,227.982787 C524,253.963606 502.944499,275 476.983865,275 C451.029684,274.995697 430,253.963606 430,227.982787" id="path1948" fill="#969EC2" fill-rule="nonzero"></path>
                <path d="M431,227.476433 C431,201.844015 451.821151,181 477.49036,181 C503.18956,181 524,201.844015 524,227.476433 C524,253.173125 503.185276,274 477.49036,274 C451.819009,273.997858 431,253.173125 431,227.476433" id="path1950" fill="#969EC1" fill-rule="nonzero"></path>
                <path d="M431,227.476285 C431,201.823566 451.813043,181 477.496766,181 C503.186957,181 524,201.819254 524,227.476285 C524,253.182901 503.186957,274 477.496766,274 C451.813043,274 431,253.17859 431,227.476285" id="path1952" fill="#959DC1" fill-rule="nonzero"></path>
                <path d="M523,227.982828 C523,253.389081 502.401703,274 476.99034,274 C451.60903,274 431,253.39552 431,227.982828 C431,202.610919 451.600443,182 476.99034,182 C502.401703,182 523,202.60448 523,227.982828" id="path1954" fill="#949CC0" fill-rule="nonzero"></path>
                <path d="M432,227.485015 C432,202.381346 452.35684,182 477.489297,182 C502.634597,182 523,202.381346 523,227.485015 C523,252.633639 502.632457,273 477.489297,273 C452.3547,272.997859 432,252.633639 432,227.485015" id="path1956" fill="#939BC0" fill-rule="nonzero"></path>
                <path d="M432,227.474094 C432,202.381738 452.129051,182 476.989325,182 C501.849599,182 522,202.381738 522,227.474094 C522,252.631216 501.860274,273 476.989325,273 C452.131186,273 432,252.631216 432,227.474094" id="path1958" fill="#929ABF" fill-rule="nonzero"></path>
                <path d="M432,227.980627 C432,203.150442 452.142539,183 476.988162,183 C501.840241,183 522,203.150442 522,227.980627 C522,252.864626 501.842394,273 476.988162,273 C452.13393,273 432,252.86032 432,227.980627" id="path1960" fill="#9199BE" fill-rule="nonzero"></path>
                <path d="M433,227.484973 C433,202.931621 452.91823,183 477.489269,183 C502.071039,183 522,202.927328 522,227.484973 C522,252.091992 502.079624,272 477.489269,272 C452.916084,272 433,252.091992 433,227.484973" id="path1962" fill="#9099BE" fill-rule="nonzero"></path>
                <path d="M433,227.99465 C433,203.734138 452.717718,184 477,184 C501.307962,184 521,203.734138 521,227.99465 C521,252.321506 501.310102,272 477,272 C452.704878,271.99786 433,252.321506 433,227.99465" id="path1964" fill="#8F98BD" fill-rule="nonzero"></path>
                <path d="M433,227.975177 C433,203.696338 452.690799,184 477,184 C501.307043,184 521,203.696338 521,227.975177 C521,252.303662 501.307043,272 477,272 C452.697273,271.997841 433,252.303662 433,227.975177" id="path1966" fill="#8F97BD" fill-rule="nonzero"></path>
                <path d="M434,227.482783 C434,203.478479 453.485899,184 477.493543,184 C501.531318,184 521,203.478479 521,227.482783 C521,251.517217 501.531318,271 477.493543,271 C453.485899,270.997848 434,251.517217 434,227.482783" id="path1968" fill="#8E96BC" fill-rule="nonzero"></path>
                <path d="M434,227.9764 C434,204.251522 453.259143,185 476.991418,185 C500.740857,185 520,204.255813 520,227.9764 C520,251.731314 500.740857,271 476.991418,271 C453.267724,270.997855 434,251.731314 434,227.9764" id="path1970" fill="#8D95BC" fill-rule="nonzero"></path>
                <path d="M435,227.482883 C435,204.00871 454.027264,185 477.49465,185 C500.974876,185 520,204.012989 520,227.482883 C520,250.987011 500.968457,270 477.49465,270 C454.025124,270 435,250.987011 435,227.482883" id="path1972" fill="#8C95BB" fill-rule="nonzero"></path>
                <path d="M435,227.48381 C435,204.047667 454.030366,185 477.489209,185 C500.956685,185 520,204.04335 520,227.48381 C520,250.976077 500.956685,270 477.489209,270 C454.030366,270 435,250.969602 435,227.48381" id="path1974" fill="#8B94BB" fill-rule="nonzero"></path>
                <path d="M435,227.975252 C435,204.795788 453.804846,186 476.994621,186 C500.208063,186 519,204.800092 519,227.975252 C519,251.184844 500.208063,270 476.994621,270 C453.813453,270 435,251.184844 435,227.975252" id="path1976" fill="#8A93BA" fill-rule="nonzero"></path>
                <path d="M436,227.484985 C436,204.601747 454.585804,186 477.490346,186 C500.424923,186 519,204.601747 519,227.484985 C519,250.432574 500.427069,269 477.490346,269 C454.585804,268.99571 436,250.432574 436,227.484985" id="path1978" fill="#8992BA" fill-rule="nonzero"></path>
                <path d="M436,227.974332 C436,205.361018 454.346241,187 476.998931,187 C499.625962,187 518,205.361018 518,227.974332 C518,250.634704 499.625962,269 476.998931,269 C454.356932,268.993583 436,250.632565 436,227.974332" id="path1980" fill="#8892B9" fill-rule="nonzero"></path>
                <path d="M436,227.991368 C436,205.370158 454.357468,187 476.996763,187 C499.649006,187 518,205.370158 518,227.991368 C518,250.666526 499.649006,269 476.996763,269 C454.35531,269 436,250.664368 436,227.991368" id="path1982" fill="#8791B9" fill-rule="nonzero"></path>
                <path d="M437,227.474182 C437,205.135067 455.146753,187 477.494622,187 C499.861851,187 518,205.137218 518,227.474182 C518,249.879994 499.861851,268 477.494622,268 C455.153207,268 437,249.879994 437,227.474182" id="path1984" fill="#8690B8" fill-rule="nonzero"></path>
                <path d="M437,227.976409 C437,205.901453 454.910992,188 476.991421,188 C499.104021,188 517,205.901453 517,227.976409 C517,250.087824 499.101877,268 476.991421,268 C454.906702,268 437,250.083534 437,227.976409" id="path1986" fill="#858FB8" fill-rule="nonzero"></path>
                <path d="M438,227.483962 C438,205.67412 455.677634,188 477.506413,188 C499.320228,188 517,205.67412 517,227.483962 C517,249.323742 499.320228,267 477.506413,267 C455.684047,266.997862 438,249.323742 438,227.483962" id="path1988" fill="#848FB7" fill-rule="nonzero"></path>
                <path d="M438,227.502158 C438,205.706376 455.691978,188 477.498921,188 C499.308022,188 517,205.706376 517,227.502158 C517,249.317362 499.31018,267 477.498921,267 C455.691978,267 438,249.321678 438,227.502158" id="path1990" fill="#838EB7" fill-rule="nonzero"></path>
                <path d="M438,228.004302 C438,206.455237 455.466218,189 477.002151,189 C498.555292,189 516,206.455237 516,228.004302 C516,249.551216 498.553141,267 477.002151,267 C455.466218,267 438,249.551216 438,228.004302" id="path1992" fill="#838DB6" fill-rule="nonzero"></path>
                <path d="M439,227.493568 C439,206.226167 456.241174,189 477.502144,189 C498.758826,189 516,206.234742 516,227.493568 C516,248.756682 498.748107,266 477.502144,266 C456.241174,266 439,248.756682 439,227.493568" id="path1994" fill="#828CB6" fill-rule="nonzero"></path>
                <path d="M439,228.010685 C439,207.03183 456.007113,190 476.990385,190 C497.999297,190 515,207.03183 515,228.010685 C515,249.004498 497.999297,266 476.990385,266 C456.007113,266.004273 439,249.006635 439,228.010685" id="path1996" fill="#818BB5" fill-rule="nonzero"></path>
                <path d="M439,227.995685 C439,207.022878 456.01499,190 476.995685,190 C498.000114,190 515,207.033664 515,227.995685 C515,248.996536 497.991483,266 476.995685,266 C456.01499,266.00647 439,249.00085 439,227.995685" id="path1998" fill="#808BB5" fill-rule="nonzero"></path>
                <path d="M440,227.492472 C440,206.785684 456.792585,190 477.486022,190 C498.200963,190 515,206.785684 515,227.492472 C515,248.214316 498.200963,265 477.486022,265 C456.788285,265 440,248.214316 440,227.492472" id="path2000" fill="#7F8AB4" fill-rule="nonzero"></path>
                <path d="M440,228.002143 C440,207.576377 456.563038,191 477.011788,191 C497.443392,191 514,207.572091 514,228.002143 C514,248.442913 497.443392,265 477.011788,265 C456.569467,265 440,248.445056 440,228.002143" id="path2002" fill="#7E89B4" fill-rule="nonzero"></path>
                <path d="M441,227.502136 C441,207.343507 457.348447,191 477.491458,191 C497.640876,191 514,207.343507 514,227.502136 C514,247.686399 497.640876,264 477.491458,264 C457.350582,264 441,247.692807 441,227.502136" id="path2004" fill="#7D89B3" fill-rule="nonzero"></path>
                <path d="M441,227.504314 C441,207.355969 457.325796,191 477.488132,191 C497.656942,191 514,207.355969 514,227.504314 C514,247.66776 497.656942,264 477.488132,264 C457.325796,264 441,247.66776 441,227.504314" id="path2006" fill="#7C88B3" fill-rule="nonzero"></path>
                <path d="M441,227.992472 C441,208.104895 457.107724,192 476.981728,192 C496.875078,192 513,208.104895 513,227.992472 C513,247.88005 496.875078,264 476.981728,264 C457.107724,264.006449 441,247.869298 441,227.992472" id="path2008" fill="#7B87B2" fill-rule="nonzero"></path>
                <path d="M442,227.51071 C442,207.915344 457.896801,192 477.495715,192 C497.111768,192 513,207.915344 513,227.51071 C513,247.118928 497.111768,263 477.495715,263 C457.896801,263.004283 442,247.125354 442,227.51071" id="path2010" fill="#7A86B2" fill-rule="nonzero"></path>
                <path d="M442,228.010677 C442,208.675371 457.663231,193 476.993596,193 C496.336769,193 512,208.690318 512,228.010677 C512,247.358794 496.328231,263 476.993596,263 C457.663231,263 442,247.358794 442,228.010677" id="path2012" fill="#7A86B1" fill-rule="nonzero"></path>
                <path d="M442,227.993529 C442,208.654545 457.661982,193 476.989214,193 C496.318602,193 512,208.654545 512,227.993529 C512,247.332512 496.318602,263 476.989214,263 C457.661982,263 442,247.332512 442,227.993529" id="path2014" fill="#7985B1" fill-rule="nonzero"></path>
                <path d="M512,227.508599 C512,246.573992 496.554389,262 477.490325,262 C458.454211,262 443,246.573992 443,227.508599 C443,208.458253 458.460661,193 477.490325,193 C496.554389,193.00215 512,208.458253 512,227.508599" id="path2016" fill="#7884B0" fill-rule="nonzero"></path>
                <path d="M443,228.016206 C443,209.227557 458.221301,194 476.99892,194 C495.778699,194 511,209.227557 511,228.016206 C511,246.787569 495.778699,262 476.99892,262 C458.223461,262 443,246.787569 443,228.016206" id="path2018" fill="#7783B0" fill-rule="nonzero"></path>
                <path d="M444,227.99251 C444,209.776758 458.754376,195 476.980747,195 C495.226371,195 510,209.776758 510,227.99251 C510,246.236082 495.22851,261 476.980747,261 C458.762933,261 444,246.242502 444,227.99251" id="path2020" fill="#7683AF" fill-rule="nonzero"></path>
                <path d="M445,227.491396 C445,209.521643 459.542417,195 477.480645,195 C495.451132,195 510,209.523794 510,227.491396 C510,245.44179 495.451132,260 477.480645,260 C459.540266,260 445,245.44179 445,227.491396" id="path2022" fill="#7582AF" fill-rule="nonzero"></path>
                <path d="M445,227.996756 C445,210.327713 459.318805,196 476.982702,196 C494.674708,196 509,210.327713 509,227.996756 C509,245.667962 494.674708,260 476.982702,260 C459.318805,260 445,245.667962 445,227.996756" id="path2024" fill="#7481AE" fill-rule="nonzero"></path>
                <path d="M446,227.991441 C446,210.868365 459.875966,197 476.989301,197 C494.096218,197 508,210.868365 508,227.991441 C508,245.138055 494.096218,259 476.989301,259 C459.878106,258.991441 446,245.138055 446,227.991441" id="path2026" fill="#7480AE" fill-rule="nonzero"></path>
                <path d="M447,227.493542 C447,210.66462 460.662433,197 477.498924,197 C494.35263,197 508,210.66462 508,227.493542 C508,244.34399 494.344022,258 477.498924,258 C460.662433,257.99139 447,244.34399 447,227.493542" id="path2028" fill="#7380AD" fill-rule="nonzero"></path>
                <path d="M447,227.487221 C447,211.204823 460.432416,198 476.985931,198 C493.556762,198 507,211.204823 507,227.487221 C507,243.801567 493.556762,257 476.985931,257 C460.441074,257 447,243.801567 447,227.487221" id="path2030" fill="#727FAD" fill-rule="nonzero"></path>
                <path d="M448,227.980732 C448,211.990698 460.982135,199 477.002141,199 C493.028569,199 506,211.990698 506,227.980732 C506,244.041414 493.028569,257 477.002141,257 C460.982135,256.997859 448,244.041414 448,227.980732" id="path2032" fill="#717EAC" fill-rule="nonzero"></path>
                <path d="M449,227.49677 C449,211.753031 461.758558,199 477.506461,199 C493.243596,199 506,211.757338 506,227.49677 C506,243.236203 493.239288,256 477.506461,256 C461.756404,256.002153 449,243.238356 449,227.49677" id="path2034" fill="#707EAC" fill-rule="nonzero"></path>
                <path d="M450,227.989167 C450,212.529908 462.305683,200 477.501064,200 C492.685805,200 505,212.529908 505,227.989167 C505,243.467925 492.685805,256 477.501064,256 C462.305683,256 450,243.467925 450,227.989167" id="path2036" fill="#6F7DAB" fill-rule="nonzero"></path>
                <path d="M450,227.992503 C450,213.0814 462.091598,201 477.005353,201 C491.914826,201 504,213.0814 504,227.992503 C504,242.920743 491.910544,255 477.005353,255 C462.093739,255.002142 450,242.920743 450,227.992503" id="path2038" fill="#6E7CAB" fill-rule="nonzero"></path>
                <path d="M451,227.515085 C451,212.893429 462.866347,201 477.498923,201 C492.125036,201 504,212.893429 504,227.515085 C504,242.153981 492.125036,254 477.498923,254 C462.864193,254 451,242.153981 451,227.515085" id="path2040" fill="#6D7BAA" fill-rule="nonzero"></path>
                <path d="M452,227.495739 C452,213.418991 463.432172,202 477.481911,202 C491.584853,202 503,213.412602 503,227.495739 C503,241.587396 491.584853,253 477.481911,253 C463.440684,253.006386 452,241.587396 452,227.495739" id="path2042" fill="#6C7BA9" fill-rule="nonzero"></path>
                <path d="M452,227.993576 C452,214.192719 463.173472,203 476.981792,203 C490.785828,203 502,214.192719 502,227.993576 C502,241.805139 490.78797,253 476.981792,253 C463.173472,252.993576 452,241.805139 452,227.993576" id="path2044" fill="#6B7AA9" fill-rule="nonzero"></path>
                <path d="M453,227.507551 C453,213.967992 463.964386,203 477.487058,203 C491.035614,203 502,213.967992 502,227.507551 C502,241.029851 491.035614,252 477.487058,252 C463.966543,251.995685 453,241.025536 453,227.507551" id="path2046" fill="#6A79A9" fill-rule="nonzero"></path>
                <path d="M454,227.493618 C454,214.511814 464.513746,204 477.503193,204 C490.486254,204 501,214.511814 501,227.493618 C501,240.454146 490.486254,251 477.503193,251 C464.513746,250.993618 454,240.452019 454,227.493618" id="path2048" fill="#6979A8" fill-rule="nonzero"></path>
                <path d="M454,227.998928 C454,215.314151 464.302251,205 476.996785,205 C489.719185,205 500,215.314151 500,227.998928 C500,240.722286 489.714898,251 476.996785,251 C464.300107,251.004286 454,240.722286 454,227.998928" id="path2050" fill="#6978A8" fill-rule="nonzero"></path>
                <path d="M455,227.496759 C455,215.05018 465.078946,205 477.507559,205 C489.936171,205 500,215.05018 500,227.496759 C500,239.92605 489.936171,250 477.507559,250 C465.078946,250 455,239.92605 455,227.496759" id="path2052" fill="#6877A7" fill-rule="nonzero"></path>
                <path d="M456,227.49468 C456,215.634739 465.627437,206 477.497872,206 C489.36405,206 499,215.630485 499,227.49468 C499,239.378022 489.36405,249 477.497872,249 C465.629565,249.006379 456,239.378022 456,227.49468" id="path2054" fill="#6777A7" fill-rule="nonzero"></path>
                <path d="M456,228.005363 C456,216.404362 465.385055,207 476.996782,207 C488.610654,207 498,216.404362 498,228.005363 C498,239.610654 488.610654,249 476.996782,249 C465.385055,249 456,239.610654 456,228.005363" id="path2056" fill="#6676A6" fill-rule="nonzero"></path>
                <path d="M457,227.482706 C457,216.172361 466.170483,207 477.50649,207 C488.823027,207 498,216.170199 498,227.482706 C498,238.814668 488.827353,248 477.50649,248 C466.170483,248 457,238.814668 457,227.482706" id="path2058" fill="#6575A6" fill-rule="nonzero"></path>
                <path d="M497,227.491485 C497,238.278221 488.268593,247 477.523391,247 C466.739913,247 458,238.278221 458,227.491485 C458,216.717522 466.737786,208 477.523391,208 C488.268593,208 497,216.717522 497,227.491485" id="path2060" fill="#6475A5" fill-rule="nonzero"></path>
                <g id="polygon2073-Clipped" transform="translate(421.000000, 171.000000)">
                    <mask id="mask-2" fill="white">
                        <use xlink:href="#path-1"></use>
                    </mask>
                    <g id="SVGID_1_"></g>
                    <polygon id="polygon2073" fill="#E20000" fill-rule="nonzero" mask="url(#mask-2)" points="62.6956981 -55.1311852 169.150189 62.9460741 50.921434 169.270815 -55.5416604 51.1699259"></polygon>
                </g>
                <path d="M581,70.9881545 C581,91.4184348 564.420847,108 544.010767,108 C523.576999,108 507,91.4205885 507,70.9881545 C507,50.5729503 523.574846,34 544.010767,34 C564.418694,34 581,50.5729503 581,70.9881545" id="path2085" fill="#949CC0" fill-rule="nonzero"></path>
                <path d="M508,71.4967954 C508,51.3479678 524.338248,35 544.503203,35 C564.659617,35 581,51.3479678 581,71.4967954 C581,91.6605701 564.663888,108 544.503203,108 C524.338248,108.008538 508,91.6691114 508,71.4967954" id="path2087" fill="#959DC1" fill-rule="nonzero"></path>
                <path d="M508,71.4828377 C508,51.3299636 524.344981,35 544.510726,35 C564.65931,35 581,51.3299636 581,71.4828377 C581,91.6507288 564.65931,108 544.510726,108 C524.344981,108 508,91.6528741 508,71.4828377" id="path2089" fill="#969EC1" fill-rule="nonzero"></path>
                <path d="M508,71.4924571 C508,51.3335695 524.340035,35 544.492457,35 C564.668586,35 581,51.3335695 581,71.4924571 C581,91.6578101 564.668586,108 544.492457,108 C524.340035,108 508,91.6578101 508,71.4924571" id="path2091" fill="#969EC2" fill-rule="nonzero"></path>
                <path d="M508,70.9882601 C508,51.1370846 524.122208,35 543.992525,35 C563.894877,35 580,51.1264119 580,70.9882601 C580,90.86505 563.894877,107 543.992525,107 C524.122208,107 508,90.86505 508,70.9882601" id="path2093" fill="#979FC2" fill-rule="nonzero"></path>
                <path d="M508,70.9967818 C508,51.1189547 524.099645,35 543.998927,35 C563.857445,35 580,51.1189547 580,70.9967818 C580,90.8874817 563.857445,107 543.998927,107 C524.0975,107 508,90.8982091 508,70.9967818" id="path2095" fill="#98A0C3" fill-rule="nonzero"></path>
                <path d="M508,70.9838328 C508,51.1025119 524.121913,35 544.0097,35 C563.882399,35 580,51.1025119 580,70.9838328 C580,90.8802431 563.880243,107 544.0097,107 C524.117601,107 508,90.8802431 508,70.9838328" id="path2097" fill="#99A1C3" fill-rule="nonzero"></path>
                <path d="M509,71.4882525 C509,51.8890828 524.888351,36 544.486119,36 C564.11592,36 580,51.8890828 580,71.4882525 C580,91.1109172 564.11592,107 544.486119,107 C524.888351,107.002136 509,91.1109172 509,71.4882525" id="path2099" fill="#9AA1C4" fill-rule="nonzero"></path>
                <path d="M509,71.4871266 C509,51.8857558 524.88028,36 544.480691,36 C564.093975,36 580,51.8836105 580,71.4871266 C580,91.0863522 564.093975,107 544.480691,107 C524.88028,107.008578 509,91.0884974 509,71.4871266" id="path2101" fill="#9BA2C4" fill-rule="nonzero"></path>
                <path d="M509,71.4989221 C509,51.8932378 524.881494,36 544.498922,36 C564.092637,36 580,51.8953937 580,71.4989221 C580,91.1196976 564.092637,107 544.498922,107 C524.881494,107.002156 509,91.1283211 509,71.4989221" id="path2103" fill="#9CA3C5" fill-rule="nonzero"></path>
                <path d="M509,70.9850446 C509,51.6478874 524.666412,36 544.016023,36 C563.350679,36 579,51.6542961 579,70.9850446 C579,90.3371555 563.337861,106 544.016023,106 C524.666412,106.008541 509,90.3371555 509,70.9850446" id="path2105" fill="#9DA4C5" fill-rule="nonzero"></path>
                <path d="M509,70.9924895 C509,51.6540265 524.661904,36 543.987124,36 C563.329511,36 579,51.6540265 579,70.9924895 C579,90.33739 563.327365,106 543.987124,106 C524.661904,106 509,90.33739 509,70.9924895" id="path2107" fill="#9EA4C6" fill-rule="nonzero"></path>
                <path d="M509,70.9805899 C509,51.6444446 524.682329,36 543.992451,36 C563.339239,36 579,51.6444446 579,70.9805899 C579,90.321048 563.332768,106 543.992451,106 C524.682329,106.010776 509,90.3232044 509,70.9805899" id="path2109" fill="#9EA5C7" fill-rule="nonzero"></path>
                <path d="M510,71.4882504 C510,52.4432335 525.441545,37 544.483982,37 C563.520011,37 579,52.4346884 579,71.4882504 C579,90.5653116 563.537097,106 544.483982,106 C525.445817,106 510,90.5738568 510,71.4882504" id="path2111" fill="#9FA6C7" fill-rule="nonzero"></path>
                <path d="M510,71.4838963 C510,52.434238 525.456155,37 544.50322,37 C563.550285,37 579,52.4428257 579,71.4838963 C579,90.5485831 563.541699,106 544.50322,106 C525.438983,106.008584 510,90.5485831 510,71.4838963" id="path2113" fill="#A0A7C8" fill-rule="nonzero"></path>
                <path d="M510,71.4924515 C510,52.442128 525.439971,37 544.490295,37 C563.542775,37 579,52.4399712 579,71.4924515 C579,90.5449317 563.542775,106 544.490295,106 C525.439971,106 510,90.5470884 510,71.4924515" id="path2115" fill="#A1A8C8" fill-rule="nonzero"></path>
                <path d="M510,70.9797066 C510,52.2093739 525.211538,37 543.995726,37 C562.767094,37 578,52.2093739 578,70.9797066 C578,89.7564477 562.767094,105 543.995726,105 C525.211538,105.002136 510,89.7564477 510,70.9797066" id="path2117" fill="#A2A8C9" fill-rule="nonzero"></path>
                <path d="M510,70.9892643 C510,52.2146511 525.217504,37 543.994633,37 C562.791084,37 578,52.2082097 578,70.9892643 C578,89.7617303 562.791084,105 543.994633,105 C525.236826,105.002147 510,89.7703189 510,70.9892643" id="path2119" fill="#A3A9C9" fill-rule="nonzero"></path>
                <path d="M578,70.9935242 C578,89.7754428 562.790098,105 544.019422,105 C525.231482,105 510,89.7754428 510,70.9935242 C510,52.2159228 525.231482,37 544.019422,37 C562.790098,37 578,52.2267158 578,70.9935242" id="path2121" fill="#A4AACA" fill-rule="nonzero"></path>
                <path d="M511,71.5 C511,53.0174635 525.987153,38 544.505366,38 C563.006408,38 578,53.0174635 578,71.5 C578,90.0040054 563.010701,105 544.505366,105 C525.991446,105 511,90.0040054 511,71.5" id="path2123" fill="#A3A9C9" fill-rule="nonzero"></path>
                <path d="M511,70.9935943 C511,52.7779359 525.744022,38 543.981848,38 C562.200453,38 577,52.7779359 577,70.9935943 C577,89.2263345 562.200453,104 543.981848,104 C525.744022,104.002135 511,89.2263345 511,70.9935943" id="path2125" fill="#A2A8C9" fill-rule="nonzero"></path>
                <path d="M511,70.984902 C511,52.7680392 525.780239,38 543.993531,38 C562.219761,38 577,52.7680392 577,70.984902 C577,89.2254902 562.219761,104 543.993531,104 C525.780239,104 511,89.2254902 511,70.984902" id="path2127" fill="#A1A8C8" fill-rule="nonzero"></path>
                <path d="M512,71.4871296 C512,53.5371593 526.537159,39 544.49571,39 C562.447825,39 577,53.5371593 577,71.4871296 C577,89.4435351 562.447825,104 544.49571,104 C526.537159,104 512,89.4435351 512,71.4871296" id="path2129" fill="#A0A7C8" fill-rule="nonzero"></path>
                <path d="M512,70.9839931 C512,53.3251409 526.325811,39 544.0096,39 C561.654988,39 576,53.3166039 576,70.9839931 C576,88.6684563 561.676323,103 544.0096,103 C526.325811,103.002134 512,88.6684563 512,70.9839931" id="path2131" fill="#9FA6C7" fill-rule="nonzero"></path>
                <path d="M512,71.001078 C512,53.3285835 526.327586,39 544.008621,39 C561.655172,39 576,53.3285835 576,71.001078 C576,88.6800404 561.659483,103 544.008621,103 C526.334052,103.002156 512,88.6800404 512,71.001078" id="path2133" fill="#9EA5C7" fill-rule="nonzero"></path>
                <path d="M513,71.4882055 C513,54.1060128 527.107645,40 544.481781,40 C561.881638,40 576,54.1060128 576,71.4882055 C576,88.8854069 561.881638,103 544.481781,103 C527.107645,103.008572 513,88.887551 513,71.4882055" id="path2135" fill="#9EA4C6" fill-rule="nonzero"></path>
                <path d="M513,70.9925351 C513,53.8789412 526.887693,40 543.990406,40 C561.137891,40 575,53.8874703 575,70.9925351 C575,88.1018644 561.129363,102 543.990406,102 C526.870637,102.008525 513,88.114658 513,70.9925351" id="path2137" fill="#9DA4C5" fill-rule="nonzero"></path>
                <path d="M513,70.9870699 C513,53.8826555 526.87619,40 543.993535,40 C561.110879,40 575,53.8848106 575,70.9870699 C575,88.1216545 561.110879,102 543.993535,102 C526.87619,102 513,88.1216545 513,70.9870699" id="path2139" fill="#9CA3C5" fill-rule="nonzero"></path>
                <path d="M514,71.4882153 C514,54.6510239 527.659082,41 544.481794,41 C561.340918,41 575,54.6510239 575,71.4882153 C575,88.3404054 561.340918,102 544.481794,102 C527.659082,102 514,88.342548 514,71.4882153" id="path2141" fill="#9BA2C4" fill-rule="nonzero"></path>
                <path d="M514,70.9957392 C514,54.4533447 527.432963,41 544.011714,41 C560.573427,41 574,54.4512143 574,70.9957392 C574,87.578611 560.573427,101 544.011714,101 C527.432963,101.00213 514,87.578611 514,70.9957392" id="path2143" fill="#9AA1C4" fill-rule="nonzero"></path>
                <path d="M514,70.9881614 C514,54.44 527.412525,41 543.983851,41 C560.555177,41 574,54.44 574,70.9881614 C574,87.5492377 560.555177,101 543.983851,101 C527.429751,101.002152 514,87.5513901 514,70.9881614" id="path2145" fill="#99A1C3" fill-rule="nonzero"></path>
                <path d="M515,71.4871544 C515,55.2117352 528.20624,42 544.481807,42 C560.765935,42 574,55.2117352 574,71.4871544 C574,87.7882648 560.765935,101 544.481807,101 C528.20624,101 515,87.7882648 515,71.4871544" id="path2147" fill="#98A0C3" fill-rule="nonzero"></path>
                <path d="M515,71.4935051 C515,55.2020402 528.206339,42 544.498918,42 C560.804483,42 574,55.2020402 574,71.4935051 C574,87.8001248 560.804483,101 544.498918,101 C528.219324,101.002165 515,87.8001248 515,71.4935051" id="path2149" fill="#979FC2" fill-rule="nonzero"></path>
                <path d="M515,70.9881611 C515,54.9754685 527.957515,42 543.98386,42 C560.0059,42 573,54.9668584 573,70.9881611 C573,87.0159213 560.023116,100 543.98386,100 C527.959668,100 515,87.0073112 515,70.9881611" id="path2151" fill="#969EC2" fill-rule="nonzero"></path>
                <path d="M516,71.4978587 C516,55.7664931 528.74679,43 544.49786,43 C560.233951,43 573,55.7750497 573,71.4978587 C573,87.252755 560.231812,100 544.49786,100 C528.74893,100.008552 516,87.252755 516,71.4978587" id="path2153" fill="#969EC1" fill-rule="nonzero"></path>
                <path d="M516,71.4837684 C516,55.7628402 528.760419,43 544.491346,43 C560.228763,43 573,55.7628402 573,71.4837684 C573,87.2349915 560.235254,100 544.491346,100 C528.760419,100.008651 516,87.2349915 516,71.4837684" id="path2155" fill="#959DC1" fill-rule="nonzero"></path>
                <path d="M572,70.9892481 C572,86.4762307 559.456619,99 543.983869,99 C528.524024,99 516,86.4654788 516,70.9892481 C516,55.5431226 528.543381,43 543.983869,43 C559.465223,43 572,55.5538745 572,70.9892481" id="path2157" fill="#949CC0" fill-rule="nonzero"></path>
                <g id="polygon2170-Clipped" transform="translate(507.000000, 34.000000)">
                    <mask id="mask-4" fill="white">
                        <use xlink:href="#path-3"></use>
                    </mask>
                    <g id="SVGID_4_"></g>
                    <polygon id="polygon2170" fill="#E20000" fill-rule="nonzero" mask="url(#mask-4)" points="41.3614286 -36.4607143 110.871429 40.7614286 33.6728571 110.258571 -35.8435714 33.0707143"></polygon>
                </g>
                <path d="M629,30.505362 C629,42.9258853 618.918748,53 606.5,53 C594.053374,53 584,42.9258853 584,30.505362 C584,18.0848387 594.053374,8 606.5,8 C618.918748,8 629,18.0934179 629,30.505362" id="path2182" fill="#949CC0" fill-rule="nonzero"></path>
                <path d="M584,30.5096932 C584,18.0730177 594.05459,8 606.490303,8 C618.923862,8 629,18.0730177 629,30.5096932 C629,42.9269768 618.917397,53 606.490303,53 C594.063209,53.0086131 584,42.9269768 584,30.5096932" id="path2184" fill="#959DC1" fill-rule="nonzero"></path>
                <path d="M584,30.508652 C584,18.0841184 594.069975,8 606.501082,8 C618.908383,8 629,18.0841184 629,30.508652 C629,42.9050661 618.912711,53 606.501082,53 C594.069975,53.0021627 584,42.9137182 584,30.508652" id="path2186" fill="#969EC1" fill-rule="nonzero"></path>
                <path d="M585,31.0053153 C585,18.8566804 594.826688,9 606.992557,9 C619.128655,9 629,18.8566804 629,31.0053153 C629,43.1263107 619.128655,53 606.992557,53 C594.826688,53 585,43.1390674 585,31.0053153" id="path2188" fill="#969EC2" fill-rule="nonzero"></path>
                <path d="M585,31.0031988 C585,18.8527522 594.838788,9 606.987181,9 C619.139847,9 629,18.8527522 629,31.0031988 C629,43.1515099 619.141983,53 606.987181,53 C594.838788,53.0106683 585,43.1621869 585,31.0031988" id="path2190" fill="#979FC2" fill-rule="nonzero"></path>
                <path d="M585,31.0139465 C585,18.8547813 594.856446,9 607,9 C619.132826,9 629,18.8547813 629,31.0139465 C629,43.1623836 619.132826,53 607,53 C594.85001,53 585,43.1623836 585,31.0139465" id="path2192" fill="#98A0C3" fill-rule="nonzero"></path>
                <path d="M585,30.9946081 C585,18.8391255 594.852999,9 606.997844,9 C619.157781,9 629,18.8391255 629,30.9946081 C629,43.1436204 619.157781,53 606.997844,53 C594.859467,52.9978432 585,43.1414637 585,30.9946081" id="path2194" fill="#99A1C3" fill-rule="nonzero"></path>
                <path d="M585,30.991334 C585,18.8456376 594.839196,9 607.004335,9 C619.141295,9 629,18.8456376 629,30.991334 C629,43.1456935 619.136959,53 607.004335,53 C594.839196,53.0086574 585,43.1456935 585,30.991334" id="path2196" fill="#9AA1C4" fill-rule="nonzero"></path>
                <path d="M585,30.486164 C585,18.6279126 594.627405,9 606.490428,9 C618.372595,9 628,18.6257844 628,30.486164 C628,42.3699536 618.372595,52 606.490428,52 C594.629533,52.0085071 585,42.3784663 585,30.486164" id="path2198" fill="#9BA2C4" fill-rule="nonzero"></path>
                <path d="M585,30.4839736 C585,18.6158624 594.63583,9 606.505344,9 C618.362032,9 628,18.6094519 628,30.4839736 C628,42.3670427 618.37272,52 606.505344,52 C594.63583,51.9978631 585,42.3734533 585,30.4839736" id="path2200" fill="#9CA3C5" fill-rule="nonzero"></path>
                <path d="M585,30.4989262 C585,18.6316736 594.623114,9 606.502148,9 C618.376886,9 628,18.6316736 628,30.4989262 C628,42.3597363 618.376886,52 606.502148,52 C594.603777,51.9978525 585,42.3661789 585,30.4989262" id="path2202" fill="#9DA4C5" fill-rule="nonzero"></path>
                <path d="M585,30.4924405 C585,18.6114591 594.631085,9 606.487052,9 C618.373231,9 628,18.6179373 628,30.4924405 C628,42.3669437 618.373231,52 606.487052,52 C594.631085,52.0064749 585,42.3647843 585,30.4924405" id="path2204" fill="#9EA4C6" fill-rule="nonzero"></path>
                <path d="M585,30.4913289 C585,18.6357633 594.625441,9 606.506507,9 C618.374559,9 628,18.6357633 628,30.4913289 C628,42.3859145 618.374559,52 606.506507,52 C594.62761,52 585,42.3859145 585,30.4913289" id="path2206" fill="#9EA5C7" fill-rule="nonzero"></path>
                <path d="M586,30.9946784 C586,19.4128022 595.395773,10 607.00745,10 C618.585069,10 628,19.4128022 628,30.9946784 C628,42.6106127 618.585069,52 607.00745,52 C595.395773,52 586,42.6106127 586,30.9946784" id="path2208" fill="#9FA6C7" fill-rule="nonzero"></path>
                <path d="M586,30.986096 C586,19.4086666 595.397524,10 607.005349,10 C618.602476,10 628,19.4065278 628,30.986096 C628,42.5891913 618.602476,52 607.005349,52 C595.397524,52.0064132 586,42.5891913 586,30.986096" id="path2210" fill="#A0A7C8" fill-rule="nonzero"></path>
                <path d="M586,30.9989219 C586,19.4028554 595.403081,10 606.996775,10 C618.601218,10 628,19.4050056 628,30.9989219 C628,42.6035893 618.605518,52 606.996775,52 C595.420279,52.0085949 586,42.6121902 586,30.9989219" id="path2212" fill="#A1A8C8" fill-rule="nonzero"></path>
                <path d="M586,30.982716 C586,19.3959877 595.390446,10 607.00324,10 C618.590117,10 628,19.3873457 628,30.982716 C628,42.5802469 618.598756,52 607.00324,52 C595.390446,51.9978395 586,42.5867284 586,30.982716" id="path2214" fill="#A2A8C9" fill-rule="nonzero"></path>
                <path d="M586,30.99023 C586,19.4073921 595.39388,10 607.002171,10 C618.599607,10 628,19.4073921 628,30.99023 C628,42.6012923 618.608291,52 607.002171,52 C595.39388,52 586,42.6099767 586,30.99023" id="path2216" fill="#A3A9C9" fill-rule="nonzero"></path>
                <path d="M627,30.4840285 C627,41.813172 617.826426,51 606.512777,51 C595.18848,51 586,41.8067834 586,30.4840285 C586,19.1697917 595.196998,10 606.512777,10 C617.828555,10 627,19.1761803 627,30.4840285" id="path2218" fill="#A4AACA" fill-rule="nonzero"></path>
                <path d="M586,30.4860215 C586,19.1698925 595.194513,10 606.507528,10 C617.833447,10 627,19.1698925 627,30.4860215 C627,41.8193548 617.829145,51 606.507528,51 C595.196664,50.9978495 586,41.8193548 586,30.4860215" id="path2220" fill="#A3A9C9" fill-rule="nonzero"></path>
                <path d="M586,30.5032562 C586,19.1830262 595.188569,10 606.503258,10 C617.837491,10 627,19.1830262 627,30.5032562 C627,41.8191423 617.830976,51 606.503258,51 C595.192913,51.0065124 586,41.8300021 586,30.5032562" id="path2222" fill="#A2A8C9" fill-rule="nonzero"></path>
                <path d="M587,30.9946498 C587,19.9604623 595.954713,11 606.994653,11 C618.034593,11 627,19.9604623 627,30.9946498 C627,42.0652186 618.034593,51 606.994653,51 C595.948297,50.9978599 587,42.0630785 587,30.9946498" id="path2224" fill="#A1A8C8" fill-rule="nonzero"></path>
                <path d="M587,30.9902722 C587,19.9349968 595.965741,11 607.01513,11 C618.049389,11 627,19.9349968 627,30.9902722 C627,42.0369022 618.049389,51 607.01513,51 C595.965741,51.0064805 587,42.0347409 587,30.9902722" id="path2226" fill="#A0A7C8" fill-rule="nonzero"></path>
                <path d="M587,30.4872299 C587,19.728389 595.732868,11 606.504256,11 C617.260749,11 626,19.728389 626,30.4872299 C626,41.2652259 617.260749,50 606.504256,50 C595.734996,50 587,41.271611 587,30.4872299" id="path2228" fill="#9FA6C7" fill-rule="nonzero"></path>
                <path d="M587,30.4989251 C587,19.7390442 595.749793,11 606.511824,11 C617.273855,11 626,19.7304448 626,30.4989251 C626,41.2695552 617.280304,50 606.511824,50 C595.756243,49.9978502 587,41.2760046 587,30.4989251" id="path2230" fill="#9EA5C7" fill-rule="nonzero"></path>
                <path d="M587,30.4869638 C587,19.7190529 595.744638,11 606.514122,11 C617.27926,11 626,19.7190529 626,30.4869638 C626,41.2766017 617.27926,50 606.514122,50 C595.744638,50 587,41.2766017 587,30.4869638" id="path2232" fill="#9EA4C6" fill-rule="nonzero"></path>
                <path d="M588,30.9839464 C588,20.4955782 596.505485,12 607.003206,12 C617.49024,12 626,20.4955782 626,30.9839464 C626,41.5001408 617.494515,50 607.003206,50 C596.505485,49.9978595 588,41.4980003 588,30.9839464" id="path2234" fill="#9DA4C5" fill-rule="nonzero"></path>
                <path d="M588,30.9848726 C588,20.4951092 596.527525,12 607.015127,12 C617.491924,12 626,20.4972702 626,30.9848726 C626,41.474636 617.489763,50 607.015127,50 C596.527525,49.9978389 588,41.4832803 588,30.9848726" id="path2236" fill="#9CA3C5" fill-rule="nonzero"></path>
                <path d="M588,30.4882985 C588,20.2931401 596.286503,12 606.510635,12 C616.730513,12 625,20.2931401 625,30.4882985 C625,40.71537 616.726259,49 606.510635,49 C596.28863,49 588,40.71537 588,30.4882985" id="path2238" fill="#9BA2C4" fill-rule="nonzero"></path>
                <path d="M588,30.4827968 C588,20.2888764 596.292696,12 606.501075,12 C616.730955,12 625,20.2888764 625,30.4827968 C625,40.7111198 616.730955,49 606.501075,49 C596.312046,49.0064467 588,40.7111198 588,30.4827968" id="path2240" fill="#9AA1C4" fill-rule="nonzero"></path>
                <path d="M588,30.4989132 C588,20.3050579 596.293665,12 606.509775,12 C616.717196,12 625,20.3050579 625,30.4989132 C625,40.7275451 616.719368,49 606.509775,49 C596.293665,49 588,40.7362392 588,30.4989132" id="path2242" fill="#99A1C3" fill-rule="nonzero"></path>
                <path d="M589,30.9903718 C589,21.0560928 597.080585,13 607.022464,13 C616.945088,13 625,21.0667886 625,30.9903718 C625,40.9503209 616.940809,49 607.022464,49 C597.080585,49.0064137 589,40.9481817 589,30.9903718" id="path2244" fill="#98A0C3" fill-rule="nonzero"></path>
                <path d="M589,30.9859485 C589,21.0742209 597.060766,13 607.015131,13 C616.969497,13 625,21.0742209 625,30.9859485 C625,40.9257791 616.969497,49 607.015131,49 C597.060766,49 589,40.9257791 589,30.9859485" id="path2246" fill="#979FC2" fill-rule="nonzero"></path>
                <path d="M589,30.487243 C589,20.8370566 596.842262,13 606.5,13 C616.166241,13 624,20.8243031 624,30.487243 C624,40.1693132 616.164116,48 606.5,48 C596.848639,48.0084955 589,40.17569 589,30.487243" id="path2248" fill="#969EC2" fill-rule="nonzero"></path>
                <path d="M589,30.4903226 C589,20.8387097 596.849201,13 606.515049,13 C616.185197,13 624,20.8473118 624,30.4903226 C624,40.1612903 616.176597,48 606.515049,48 C596.842752,48 589,40.1677419 589,30.4903226" id="path2250" fill="#969EC1" fill-rule="nonzero"></path>
                <path d="M589,30.49565 C589,20.8517276 596.843253,13 606.515221,13 C616.180666,13 624,20.8517276 624,30.49565 C624,40.1700224 616.180666,48 606.515221,48 C596.843253,48 589,40.1678474 589,30.49565" id="path2252" fill="#959DC1" fill-rule="nonzero"></path>
                <path d="M624,30.9860982 C624,40.39454 616.381743,48 607.004275,48 C597.603294,48 590,40.39454 590,30.9860982 C590,21.6033217 597.603294,14 607.004275,14 C616.377468,13.9978617 624,21.6033217 624,30.9860982" id="path2254" fill="#949CC0" fill-rule="nonzero"></path>
                <g id="polygon2267-Clipped" transform="translate(584.000000, 8.000000)">
                    <mask id="mask-6" fill="white">
                        <use xlink:href="#path-5"></use>
                    </mask>
                    <g id="SVGID_7_"></g>
                    <polygon id="polygon2267" fill="#E20000" fill-rule="nonzero" mask="url(#mask-6)" points="25.3629091 -21.6009545 67.8808182 25.6169545 20.6436818 68.1434091 -21.8742273 20.9190909"></polygon>
                </g>
                <path d="M678,17.4967666 C678,27.1731231 670.150823,35 660.514016,35 C650.842708,35 643,27.1645008 643,17.4967666 C643,7.84627702 650.851334,0 660.514016,0 C670.152979,0 678,7.85921045 678,17.4967666" id="path2279" fill="#949CC0" fill-rule="nonzero"></path>
                <path d="M643,17.4956615 C643,7.82016188 650.852411,0 660.516251,0 C670.164923,0 678,7.82666423 678,17.4956615 C678,27.1776635 670.147589,35 660.516251,35 C650.852411,35.0086626 643,27.1776635 643,17.4956615" id="path2281" fill="#959DC1" fill-rule="nonzero"></path>
                <path d="M643,17.4956522 C643,7.85217391 650.831209,0 660.501088,0 C670.157911,0 678,7.85217391 678,17.4956522 C678,27.1369565 670.157911,35 660.501088,35 C650.829033,35 643,27.1369565 643,17.4956522" id="path2283" fill="#969EC1" fill-rule="nonzero"></path>
                <path d="M643,16.9893777 C643,7.59710072 650.611243,0 660.004247,0 C669.397252,0 677,7.59710072 677,16.9893777 C677,26.3859035 669.397252,34 660.004247,34 C650.611243,34 643,26.388028 643,16.9893777" id="path2285" fill="#969EC2" fill-rule="nonzero"></path>
                <path d="M643,16.9989321 C643,7.59708524 650.620028,0 660.0064,0 C669.392772,0 677,7.59708524 677,16.9989321 C677,26.4071864 669.394905,34 660.0064,34 C650.620028,34 643,26.4071864 643,16.9989321" id="path2287" fill="#979FC2" fill-rule="nonzero"></path>
                <path d="M643,16.9967817 C643,7.61014703 650.606307,0 660.00965,0 C669.380826,0 677,7.61229255 677,16.9967817 C677,26.3877075 669.380826,34 660.00965,34 C650.623463,34 643,26.3877075 643,16.9967817" id="path2289" fill="#98A0C3" fill-rule="nonzero"></path>
                <path d="M643,16.9956913 C643,7.59624889 650.589074,0 660.007542,0 C669.389378,0 677,7.58763148 677,16.9956913 C677,26.3843619 669.402307,34 660.007542,34 C650.595538,34 643,26.3929793 643,16.9956913" id="path2291" fill="#99A1C3" fill-rule="nonzero"></path>
                <path d="M643,17.0021637 C643,7.63441945 650.60438,0 660.003247,0 C669.386961,0 677,7.62576364 677,17.0021637 C677,26.3785638 669.397784,34 660.003247,34 C650.60438,34.0021635 643,26.3893836 643,17.0021637" id="path2293" fill="#9AA1C4" fill-rule="nonzero"></path>
                <path d="M643,17.0010869 C643,7.62342561 650.621777,0 660.009788,0 C669.386923,0 677,7.62342561 677,17.0010869 C677,26.4048335 669.386923,34 660.009788,34 C650.619602,34 643,26.4048335 643,17.0010869" id="path2295" fill="#9BA2C4" fill-rule="nonzero"></path>
                <path d="M644,17.4978781 C644,8.38967458 651.379514,1 660.497879,1 C669.607762,1 677,8.38755294 677,17.4978781 C677,26.6209332 669.607762,34 660.497879,34 C651.379514,34.0021212 644,26.6209332 644,17.4978781" id="path2297" fill="#9CA3C5" fill-rule="nonzero"></path>
                <path d="M644,17.5010612 C644,8.39225392 651.389937,1 660.512789,1 C669.616458,1 677,8.40077279 677,17.5010612 C677,26.6162576 669.614326,34 660.512789,34 C651.389937,34.0085115 644,26.6162576 644,17.5010612" id="path2299" fill="#9DA4C5" fill-rule="nonzero"></path>
                <path d="M644,17.4957193 C644,8.38208587 651.394964,1 660.511779,1 C669.62431,1 677,8.38208587 677,17.4957193 C677,26.6136334 669.62431,34 660.511779,34 C651.394964,34 644,26.6136334 644,17.4957193" id="path2301" fill="#9EA4C6" fill-rule="nonzero"></path>
                <path d="M644,17.4892394 C644,8.38163548 651.386421,1 660.513989,1 C669.620035,1 677,8.38163548 677,17.4892394 C677,26.6011474 669.620035,34 660.513989,34 C651.386421,34.0021516 644,26.6032995 644,17.4892394" id="path2303" fill="#9EA5C7" fill-rule="nonzero"></path>
                <path d="M644,17.4870266 C644,8.38186345 651.396999,1 660.515136,1 C669.622461,1 677,8.37970122 677,17.4870266 C677,26.6159743 669.622461,34 660.515136,34 C651.396999,34 644,26.6159743 644,17.4870266" id="path2305" fill="#9FA6C7" fill-rule="nonzero"></path>
                <path d="M644,17.4978261 C644,8.39347826 651.412508,1 660.5,1 C669.620079,1 677,8.39130435 677,17.4978261 C677,26.6065217 669.622251,34 660.5,34 C651.412508,34 644,26.6065217 644,17.4978261" id="path2307" fill="#A0A7C8" fill-rule="nonzero"></path>
                <path d="M644,17.9872928 C644,9.16686348 651.142176,2 660.008472,2 C668.828171,2 676,9.16686348 676,17.9872928 C676,26.833129 668.828171,34 660.008472,34 C651.142176,34.0084615 644,26.841598 644,17.9872928" id="path2309" fill="#A1A8C8" fill-rule="nonzero"></path>
                <path d="M644,16.9851084 C644,8.16925941 651.164815,1 660.01384,1 C668.854348,1 676,8.16925941 676,16.9851084 C676,25.8349953 668.858607,33 660.01384,33 C651.166944,33 644,25.8349953 644,16.9851084" id="path2311" fill="#A2A8C9" fill-rule="nonzero"></path>
                <path d="M644,16.9850365 C644,8.16098854 651.160061,1 660.005347,1 C668.831384,1 676,8.15885093 676,16.9850365 C676,25.8240477 668.831384,33 660.005347,33 C651.160061,33.0021371 644,25.8261853 644,16.9850365" id="path2313" fill="#A3A9C9" fill-rule="nonzero"></path>
                <path d="M676,16.9924756 C676,25.8561639 668.851864,33 660.009674,33 C651.150286,33 644,25.8561639 644,16.9924756 C644,8.1610346 651.150286,1 660.009674,1 C668.851864,1 676,8.1610346 676,16.9924756" id="path2315" fill="#A4AACA" fill-rule="nonzero"></path>
                <path d="M644,16.9782845 C644,8.17263844 651.15958,1 659.998915,1 C668.83391,1 676,8.17263844 676,16.9782845 C676,25.8360478 668.83391,33 659.998915,33 C651.15958,33 644,25.8360478 644,16.9782845" id="path2317" fill="#A3A9C9" fill-rule="nonzero"></path>
                <path d="M645,17.4829974 C645,8.95831619 651.924355,2 660.504256,2 C669.067133,2 676,8.95831619 676,17.4829974 C676,26.0544358 669.067133,33 660.504256,33 C651.905203,33 645,26.0544358 645,17.4829974" id="path2319" fill="#A2A8C9" fill-rule="nonzero"></path>
                <path d="M645,17.4817443 C645,8.92491337 651.927314,2 660.508592,2 C669.066242,2 676,8.93350241 676,17.4817443 C676,26.0471643 669.066242,33 660.508592,33 C651.927314,33.0085811 645,26.0557533 645,17.4817443" id="path2321" fill="#A1A8C8" fill-rule="nonzero"></path>
                <path d="M645,17.4848079 C645,8.93832248 651.947715,2 660.503255,2 C669.058795,2 676,8.94049275 676,17.4848079 C676,26.070358 669.063134,33 660.503255,33 C651.947715,33.0021698 645,26.070358 645,17.4848079" id="path2323" fill="#A0A7C7" fill-rule="nonzero"></path>
                <path d="M645,16.9851272 C645,8.71600555 651.710107,2 660.009562,2 C668.306891,2 675,8.71600555 675,16.9851272 C675,25.3052404 668.311141,32 660.009562,32 C651.716481,32.0021241 645,25.3052404 645,16.9851272" id="path2325" fill="#9FA6C7" fill-rule="nonzero"></path>
                <path d="M645,16.9763847 C645,8.71532847 651.712221,2 660.010733,2 C668.283486,2 675,8.71532847 675,16.9763847 C675,25.2846715 668.279193,32 660.010733,32 C651.712221,32 645,25.2846715 645,16.9763847" id="path2327" fill="#9EA5C6" fill-rule="nonzero"></path>
                <path d="M645,16.9761354 C645,8.7016199 651.711069,2 660.014117,2 C668.288931,2 675,8.70812844 675,16.9761354 C675,25.2701765 668.26504,32 660.014117,32 C651.711069,32 645,25.2701765 645,16.9761354" id="path2329" fill="#9DA4C6" fill-rule="nonzero"></path>
                <path d="M646,17.4936404 C646,9.4995614 652.495864,3 660.515921,3 C668.521119,3 675,9.4995614 675,17.4936404 C675,25.5173977 668.518996,32 660.515921,32 C652.493741,32 646,25.5173977 646,17.4936404" id="path2331" fill="#9CA3C5" fill-rule="nonzero"></path>
                <path d="M646,17.4839187 C646,9.48828096 652.474937,3 660.5,3 C668.512199,3 675,9.49042514 675,17.4839187 C675,25.5052865 668.516487,32 660.5,32 C652.474937,32 646,25.5052865 646,17.4839187" id="path2333" fill="#9BA2C5" fill-rule="nonzero"></path>
                <path d="M646,17.493489 C646,9.49580901 652.481562,3 660.507592,3 C668.509761,3 675,9.48712768 675,17.493489 C675,25.5215537 668.527115,32 660.507592,32 C652.483731,32 646,25.523724 646,17.493489" id="path2335" fill="#9AA2C4" fill-rule="nonzero"></path>
                <path d="M646,16.985158 C646,9.25897307 652.248372,3 660,3 C667.738907,3 674,9.26957432 674,16.985158 C674,24.7367859 667.734666,31 660,31 C652.242011,31.0021197 646,24.7452669 646,16.985158" id="path2337" fill="#9AA1C4" fill-rule="nonzero"></path>
                <path d="M646,16.9914255 C646,9.27652733 652.275123,3 660.012868,3 C667.73989,3 674,9.27652733 674,16.9914255 C674,24.7363344 667.737745,31 660.012868,31 C652.268689,31 646,24.738478 646,16.9914255" id="path2339" fill="#99A0C3" fill-rule="nonzero"></path>
                <path d="M646,16.9945808 C646,9.29062476 652.251879,3 660.001085,3 C667.73076,3 674,9.29062476 674,16.9945808 C674,24.7332198 667.72859,31 660.001085,31 C652.251879,31 646,24.7332198 646,16.9945808" id="path2341" fill="#989FC2" fill-rule="nonzero"></path>
                <path d="M647,17.483057 C647,10.0343456 653.027976,4 660.501058,4 C667.942403,4 674,10.0343456 674,17.483057 C674,24.9529417 667.942403,31 660.501058,31 C653.027976,31.0084604 647,24.955059 647,17.483057" id="path2343" fill="#979EC2" fill-rule="nonzero"></path>
                <path d="M647,17.4850164 C647,10.0425716 653.042796,4 660.50214,4 C667.946505,4 674,10.0361502 674,17.4850164 C674,24.9424445 667.948645,31 660.50214,31 C653.042796,31.0021399 647,24.9510064 647,17.4850164" id="path2345" fill="#969EC1" fill-rule="nonzero"></path>
                <path d="M647,17.484819 C647,10.0506023 653.039274,4 660.509758,4 C667.965063,4 674,10.0571083 674,17.484819 C674,24.9667465 667.965063,31 660.509758,31 C653.041442,31.0021681 647,24.9689152 647,17.484819" id="path2347" fill="#959DC1" fill-rule="nonzero"></path>
                <path d="M673,16.9851984 C673,24.1893299 667.15576,30 660.005284,30 C652.812536,30 647,24.1872154 647,16.9851984 C647,9.83181522 652.812536,4 660.005284,4 C667.164214,4 673,9.83181522 673,16.9851984" id="path2349" fill="#949CC0" fill-rule="nonzero"></path>
                <g id="polygon2362-Clipped" transform="translate(643.000000, 0.000000)">
                    <mask id="mask-8" fill="white">
                        <use xlink:href="#path-7"></use>
                    </mask>
                    <g id="SVGID_10_"></g>
                    <polygon id="polygon2362" fill="#E20000" fill-rule="nonzero" mask="url(#mask-8)" points="19.2447059 -17.4574706 51.632 19.499 15.6531765 52.7794118 -16.7235294 15.8251176"></polygon>
                </g>
                <path d="M774.158996,209.152231 L758.87416,203.198348 C745.59252,198.100551 729.186924,189.339652 729.186924,172.605111 C729.186924,153.887375 747.853362,139.916829 764.817189,139.916829 C780.932933,139.916829 791.114236,146.707439 799.041138,160.039148 L820.230357,147.290352 C808.623414,126.617386 789.119628,115 765.394745,115 C733.143934,115 702.606467,138.039033 702.606467,172.60296 C702.606467,202.340111 724.68027,216.233222 748.987003,226.712745 L763.707166,232.924745 C782.07731,240.575743 800.462484,250.48741 800.462484,273.444706 C800.462484,295.814787 784.046153,315.074567 761.158619,315.074567 C741.530305,315.074567 725.03668,302.596794 720.884289,284.23827 L696,293.480985 C704.882338,320.89509 729.000131,340 758.87416,340 C797.042236,340 827,312.261099 827,273.451159 C827,237.762275 804.387288,221.047092 774.158996,209.152231" id="path2374" fill="#E20000" fill-rule="nonzero"></path>
                <path d="M926.083056,209.152231 L910.789588,203.198348 C897.505027,198.100551 881.085713,189.339652 881.085713,172.605111 C881.085713,153.887375 899.763166,139.916829 916.747552,139.916829 C932.874662,139.916829 943.076036,146.707439 950.99134,160.039148 L972.1998,147.290352 C960.597563,126.617386 941.088616,115 917.321218,115 C885.060553,115 854.507996,138.039033 854.507996,172.60296 C854.507996,202.340111 876.580177,216.233222 900.895458,226.712745 L915.621705,232.924745 C934.017697,240.575743 952.41154,250.48741 952.41154,273.444706 C952.41154,295.814787 935.994374,315.074567 913.094996,315.074567 C893.581752,315.074567 877.153844,302.760267 872.865313,284.599633 L848,293.838046 C856.963802,321.041356 881.04489,340 910.789588,340 C949.021108,340 979,312.261099 979,273.451159 C979.002149,237.762275 956.373489,221.047092 926.083056,209.152231" id="path2376" fill="#E20000" fill-rule="nonzero"></path>
                <path d="M982.389812,125.001823 L977.704278,125.001823 L977.704278,137 L975.715378,137 L975.715378,125.001823 L971,125.001823 L971,123.002127 L982.40047,123.002127 L982.40047,125.001823 L982.389812,125.001823 Z M999.982946,136.997873 L997.983387,136.997873 L997.983387,124.999696 L997.917304,124.999696 L993.103867,136.997873 L991.812041,136.997873 L987.158483,124.999696 L987.079609,124.999696 L987.079609,136.997873 L985.094972,136.997873 L985.094972,123 L988.454572,123 L992.489929,133.068683 L996.663849,123 L1000,123 L1000,136.997873 L999.982946,136.997873 Z" id="path2378" fill="#E20000" fill-rule="nonzero"></path>
            </g>
        </g>
    </g>
</svg>