<?xml version="1.0" encoding="UTF-8" standalone="no"?>
<!-- Created with Inkscape (http://www.inkscape.org/) -->

<svg
   xmlns:dc="http://purl.org/dc/elements/1.1/"
   xmlns:cc="http://creativecommons.org/ns#"
   xmlns:rdf="http://www.w3.org/1999/02/22-rdf-syntax-ns#"
   xmlns:svg="http://www.w3.org/2000/svg"
   xmlns="http://www.w3.org/2000/svg"
   xmlns:xlink="http://www.w3.org/1999/xlink"
   xmlns:sodipodi="http://sodipodi.sourceforge.net/DTD/sodipodi-0.dtd"
   xmlns:inkscape="http://www.inkscape.org/namespaces/inkscape"
   width="124.2625mm"
   height="42.804161mm"
   viewBox="0 0 124.2625 42.804161"
   version="1.1"
   id="svg1872"
   inkscape:version="0.92.0 r15299"
   sodipodi:docname="access.svg">
  <defs
     id="defs1866">
    <path
       d="m 250.597,107.031 c 0,14.453 -11.722,26.178 -26.189,26.178 -14.462,0 -26.188,-11.725 -26.188,-26.178 0,-14.471 11.726,-26.191 26.188,-26.191 14.467,0 26.189,11.722 26.189,26.191"
       id="SVGID_1_"
       inkscape:connector-curvature="0" />
    <path
       d="m 272.674,34.216 c 0,9.486 -7.696,17.168 -17.174,17.168 -9.478,0 -17.163,-7.682 -17.163,-17.168 0,-9.464 7.686,-17.15 17.163,-17.15 9.477,0 17.174,7.686 17.174,17.15"
       id="SVGID_4_"
       inkscape:connector-curvature="0" />
    <path
       d="m 295.301,15.36 c 0,5.812 -4.716,10.532 -10.53,10.532 -5.818,0 -10.533,-4.72 -10.533,-10.532 0,-5.823 4.715,-10.537 10.533,-10.537 5.814,10e-4 10.53,4.719 10.53,10.537"
       id="SVGID_7_"
       inkscape:connector-curvature="0" />
    <path
       d="m 317.806,9.117 c 0,4.471 -3.625,8.093 -8.089,8.093 -4.46,0 -8.092,-3.626 -8.092,-8.093 0,-4.464 3.632,-8.09 8.092,-8.09 4.464,0 8.089,3.626 8.089,8.09"
       id="SVGID_10_"
       inkscape:connector-curvature="0" />
  </defs>
  <sodipodi:namedview
     id="base"
     pagecolor="#ffffff"
     bordercolor="#666666"
     borderopacity="1.0"
     inkscape:pageopacity="0.0"
     inkscape:pageshadow="2"
     inkscape:zoom="1.9254133"
     inkscape:cx="232.937"
     inkscape:cy="78.999999"
     inkscape:document-units="mm"
     inkscape:current-layer="layer1"
     showgrid="false"
     fit-margin-top="0"
     fit-margin-left="0"
     fit-margin-right="0"
     fit-margin-bottom="0"
     units="mm"
     inkscape:window-width="1280"
     inkscape:window-height="744"
     inkscape:window-x="-4"
     inkscape:window-y="-4"
     inkscape:window-maximized="1" />
  <metadata
     id="metadata1869">
    <rdf:RDF>
      <cc:Work
         rdf:about="">
        <dc:format>image/svg+xml</dc:format>
        <dc:type
           rdf:resource="http://purl.org/dc/dcmitype/StillImage" />
        <dc:title></dc:title>
      </cc:Work>
    </rdf:RDF>
  </metadata>
  <g
     inkscape:label="Layer 1"
     inkscape:groupmode="layer"
     id="layer1"
     transform="translate(-1.8687528,-234.2765)">
    <g
       id="g2380"
       transform="matrix(0.26458333,0,0,0.26458333,1.8229187,234.51192)">
	<path
   id="path1874"
   d="M 26.687,132.01 15.361,156.9 H 2.063 L 49.472,53.4 96.887,156.9 H 83.573 L 72.255,132.01 Z M 49.465,80.521 31.823,120.68 h 35.285 z"
   inkscape:connector-curvature="0"
   style="fill:#0c3875" />

	<polygon
   id="polygon1876"
   points="278.556,97.818 316.127,97.818 316.127,109.146 278.556,109.146 278.556,145.572 319.513,145.572 319.513,156.898 266.185,156.898 266.185,57.611 319.513,57.611 319.513,68.944 278.556,68.944 "
   style="fill:#0c3875" />

	<path
   id="path1878"
   d="m 165.513,73.235 c -5.045,-3.253 -12.751,-6.598 -22.094,-6.598 -22.259,0 -39.247,18.567 -39.247,40.558 0,21.724 16.854,40.307 38.982,40.307 9.74,0 16.895,-3.396 22.409,-7.119 l 6.751,9.879 c -9.781,6.482 -20.082,8.557 -28.773,8.557 -28.307,0 -51.754,-22.512 -51.754,-51.213 0,-29.375 23.582,-52.28 52.816,-52.28 8.684,0 18.071,2.078 27.715,8.133 z"
   inkscape:connector-curvature="0"
   style="fill:#0c3875" />

	<path
   id="path1880"
   d="m 246.165,73.235 c -5.047,-3.254 -12.753,-6.598 -22.097,-6.598 -22.258,0 -39.244,18.567 -39.244,40.558 0,21.724 16.852,40.307 38.972,40.307 9.751,0 16.903,-3.396 22.408,-7.119 l 6.762,9.879 c -9.775,6.482 -20.08,8.557 -28.774,8.557 -28.313,0 -51.749,-22.512 -51.749,-51.213 0,-29.375 23.578,-52.28 52.809,-52.28 8.691,0 18.08,2.078 27.719,8.133 z"
   inkscape:connector-curvature="0"
   style="fill:#0c3875" />

	<path
   id="path1882"
   d="m 250.501,107.031 c 0,14.396 -11.686,26.084 -26.09,26.084 -14.406,0 -26.077,-11.688 -26.077,-26.084 0,-14.414 11.671,-26.094 26.077,-26.094 14.404,0.001 26.09,11.68 26.09,26.094"
   inkscape:connector-curvature="0"
   style="fill:#949cc0" />

	<path
   id="path1884"
   d="m 198.441,107.031 c 0,-14.346 11.624,-25.973 25.973,-25.973 14.333,0 25.968,11.627 25.968,25.973 0,14.338 -11.635,25.964 -25.968,25.964 -14.345,0 -25.973,-11.63 -25.973,-25.964"
   inkscape:connector-curvature="0"
   style="fill:#959dc1" />

	<path
   id="path1886"
   d="m 198.558,107.023 c 0,-14.278 11.578,-25.842 25.854,-25.842 14.277,0 25.852,11.562 25.852,25.842 0,14.271 -11.574,25.853 -25.852,25.853 -14.276,0 -25.854,-11.582 -25.854,-25.853"
   inkscape:connector-curvature="0"
   style="fill:#969ec1" />

	<path
   id="path1888"
   d="m 198.679,107.023 c 0,-14.207 11.527,-25.729 25.735,-25.729 14.202,0 25.722,11.521 25.722,25.729 0,14.208 -11.52,25.725 -25.722,25.725 -14.208,0 -25.735,-11.518 -25.735,-25.725"
   inkscape:connector-curvature="0"
   style="fill:#969ec2" />

	<path
   id="path1890"
   d="m 198.8,107.023 c 0,-14.145 11.467,-25.609 25.607,-25.609 14.142,0 25.615,11.466 25.615,25.609 0,14.143 -11.474,25.604 -25.615,25.604 -14.14,0.002 -25.607,-11.461 -25.607,-25.604"
   inkscape:connector-curvature="0"
   style="fill:#979fc2" />

	<path
   id="path1892"
   d="m 198.923,107.023 c 0,-14.072 11.411,-25.484 25.487,-25.484 14.079,0 25.493,11.412 25.493,25.484 0,14.07 -11.414,25.494 -25.493,25.494 -14.079,0.003 -25.487,-11.421 -25.487,-25.494"
   inkscape:connector-curvature="0"
   style="fill:#98a0c3" />

	<path
   id="path1894"
   d="m 199.045,107.023 c 0,-14.01 11.358,-25.365 25.366,-25.365 14.007,0 25.369,11.355 25.369,25.365 0,14.008 -11.361,25.371 -25.369,25.371 -14.008,-0.001 -25.366,-11.363 -25.366,-25.371"
   inkscape:connector-curvature="0"
   style="fill:#99a1c3" />

	<path
   id="path1896"
   d="m 199.156,107.023 c 0,-13.945 11.302,-25.252 25.251,-25.252 13.947,0 25.25,11.307 25.25,25.252 0,13.943 -11.303,25.248 -25.25,25.248 -13.945,0 -25.251,-11.303 -25.251,-25.248"
   inkscape:connector-curvature="0"
   style="fill:#9aa1c4" />

	<path
   id="path1898"
   d="m 199.276,107.023 c 0,-13.873 11.255,-25.131 25.13,-25.131 13.883,0 25.139,11.258 25.139,25.131 0,13.873 -11.255,25.129 -25.138,25.129 -13.876,0 -25.131,-11.256 -25.131,-25.129"
   inkscape:connector-curvature="0"
   style="fill:#9ba2c4" />

	<path
   id="path1900"
   d="m 199.398,107.023 c 0,-13.817 11.206,-25.006 25.013,-25.006 13.812,0 25.016,11.191 25.016,25.006 0,13.81 -11.203,25.01 -25.016,25.01 -13.807,0 -25.013,-11.2 -25.013,-25.01"
   inkscape:connector-curvature="0"
   style="fill:#9ca3c5" />

	<path
   id="path1902"
   d="m 199.521,107.023 c 0,-13.746 11.139,-24.892 24.885,-24.892 13.756,0 24.893,11.146 24.893,24.892 0,13.746 -11.136,24.881 -24.892,24.881 -13.746,0 -24.886,-11.134 -24.886,-24.881"
   inkscape:connector-curvature="0"
   style="fill:#9da4c5" />

	<path
   id="path1904"
   d="m 199.635,107.023 c 0,-13.676 11.1,-24.772 24.779,-24.772 13.687,0 24.772,11.099 24.772,24.772 0,13.673 -11.088,24.771 -24.772,24.771 -13.68,0 -24.779,-11.097 -24.779,-24.771"
   inkscape:connector-curvature="0"
   style="fill:#9ea4c6" />

	<path
   id="path1906"
   d="m 199.759,107.023 c 0,-13.611 11.042,-24.646 24.652,-24.646 13.622,0 24.658,11.034 24.658,24.646 0,13.617 -11.036,24.643 -24.658,24.643 -13.611,0 -24.652,-11.023 -24.652,-24.643"
   inkscape:connector-curvature="0"
   style="fill:#9ea5c7" />

	<path
   id="path1908"
   d="m 199.88,107.023 c 0,-13.549 10.981,-24.533 24.527,-24.533 13.548,0 24.533,10.984 24.533,24.533 0,13.547 -10.984,24.533 -24.533,24.533 -13.546,10e-4 -24.527,-10.986 -24.527,-24.533"
   inkscape:connector-curvature="0"
   style="fill:#9fa6c7" />

	<path
   id="path1910"
   d="m 199.999,107.016 c 0,-13.469 10.934,-24.406 24.407,-24.406 13.489,0 24.415,10.941 24.415,24.406 0,13.491 -10.93,24.422 -24.415,24.422 -13.472,0 -24.407,-10.931 -24.407,-24.422"
   inkscape:connector-curvature="0"
   style="fill:#a0a7c8" />

	<path
   id="path1912"
   d="m 200.125,107.016 c 0,-13.412 10.874,-24.277 24.286,-24.277 13.417,0 24.304,10.865 24.304,24.277 0,13.428 -10.888,24.295 -24.304,24.295 -13.416,0 -24.286,-10.868 -24.286,-24.295"
   inkscape:connector-curvature="0"
   style="fill:#a1a8c8" />

	<path
   id="path1914"
   d="m 200.233,107.016 c 0,-13.341 10.827,-24.166 24.186,-24.166 13.346,0 24.173,10.825 24.173,24.166 0,13.356 -10.827,24.183 -24.173,24.183 -13.358,-0.002 -24.186,-10.827 -24.186,-24.183"
   inkscape:connector-curvature="0"
   style="fill:#a2a8c9" />

	<path
   id="path1916"
   d="m 200.356,107.016 c 0,-13.276 10.77,-24.039 24.05,-24.039 13.282,0 24.057,10.767 24.057,24.039 0,13.293 -10.774,24.062 -24.057,24.062 -13.28,0 -24.05,-10.769 -24.05,-24.062"
   inkscape:connector-curvature="0"
   style="fill:#a3a9c9" />

	<path
   id="path1918"
   d="m 248.345,107.016 c 0,13.229 -10.716,23.937 -23.938,23.937 -13.218,0 -23.933,-10.707 -23.933,-23.937 0,-13.214 10.715,-23.92 23.933,-23.92 13.222,0 23.938,10.706 23.938,23.92"
   inkscape:connector-curvature="0"
   style="fill:#a4aaca" />

	<path
   id="path1920"
   d="m 200.618,107.016 c 0,-13.127 10.648,-23.776 23.793,-23.776 13.146,0 23.803,10.649 23.803,23.776 0,13.157 -10.656,23.793 -23.803,23.793 -13.144,0 -23.793,-10.636 -23.793,-23.793"
   inkscape:connector-curvature="0"
   style="fill:#a3a9c9" />

	<path
   id="path1922"
   d="m 200.755,107.016 c 0,-13.054 10.594,-23.643 23.656,-23.643 13.068,0 23.661,10.589 23.661,23.643 0,13.068 -10.593,23.657 -23.661,23.657 -13.066,0 -23.656,-10.589 -23.656,-23.657"
   inkscape:connector-curvature="0"
   style="fill:#a2a8c9" />

	<path
   id="path1924"
   d="m 200.895,107.016 c 0,-12.975 10.532,-23.507 23.513,-23.507 12.988,0 23.519,10.536 23.519,23.507 0,12.998 -10.53,23.522 -23.519,23.522 -12.982,0 -23.513,-10.524 -23.513,-23.522"
   inkscape:connector-curvature="0"
   style="fill:#a1a8c8" />

	<path
   id="path1926"
   d="m 201.034,107.016 c 0,-12.902 10.462,-23.363 23.38,-23.363 12.914,0 23.373,10.461 23.373,23.363 0,12.918 -10.459,23.379 -23.373,23.379 -12.918,0 -23.38,-10.461 -23.38,-23.379"
   inkscape:connector-curvature="0"
   style="fill:#a0a7c8" />

	<path
   id="path1928"
   d="m 201.17,107.016 c 0,-12.824 10.411,-23.22 23.244,-23.22 12.829,0 23.237,10.396 23.237,23.22 0,12.848 -10.408,23.243 -23.237,23.243 -12.832,0 -23.244,-10.398 -23.244,-23.243"
   inkscape:connector-curvature="0"
   style="fill:#9fa6c7" />

	<path
   id="path1930"
   d="m 201.31,107.016 c 0,-12.744 10.341,-23.084 23.104,-23.084 12.762,0 23.104,10.34 23.104,23.084 0,12.767 -10.343,23.107 -23.104,23.107 -12.76,0 -23.104,-10.342 -23.104,-23.107"
   inkscape:connector-curvature="0"
   style="fill:#9ea5c7" />

	<path
   id="path1932"
   d="m 201.453,107.016 c 0,-12.664 10.279,-22.949 22.958,-22.949 12.678,0 22.968,10.285 22.968,22.949 0,12.688 -10.282,22.965 -22.968,22.965 -12.679,-0.001 -22.958,-10.279 -22.958,-22.965"
   inkscape:connector-curvature="0"
   style="fill:#9ea4c6" />

	<path
   id="path1934"
   d="m 201.595,107.016 c 0,-12.593 10.219,-22.808 22.816,-22.808 12.607,0 22.824,10.215 22.824,22.808 0,12.607 -10.217,22.822 -22.824,22.822 -12.598,0 -22.816,-10.215 -22.816,-22.822"
   inkscape:connector-curvature="0"
   style="fill:#9da4c5" />

	<path
   id="path1936"
   d="m 201.729,107.016 c 0,-12.514 10.159,-22.672 22.678,-22.672 12.534,0 22.676,10.158 22.676,22.672 0,12.536 -10.144,22.688 -22.676,22.688 -12.519,-0.001 -22.678,-10.152 -22.678,-22.688"
   inkscape:connector-curvature="0"
   style="fill:#9ca3c5" />

	<path
   id="path1938"
   d="m 201.873,107.016 c 0,-12.441 10.089,-22.537 22.534,-22.537 12.455,0 22.545,10.1 22.545,22.537 0,12.457 -10.096,22.551 -22.545,22.551 -12.446,-0.001 -22.534,-10.094 -22.534,-22.551"
   inkscape:connector-curvature="0"
   style="fill:#9ba2c4" />

	<path
   id="path1940"
   d="m 202.006,107.016 c 0,-12.363 10.03,-22.393 22.4,-22.393 12.381,0 22.403,10.029 22.403,22.393 0,12.385 -10.021,22.407 -22.403,22.407 -12.369,0 -22.4,-10.025 -22.4,-22.407"
   inkscape:connector-curvature="0"
   style="fill:#9aa1c4" />

	<path
   id="path1942"
   d="m 202.152,107.016 c 0,-12.289 9.966,-22.25 22.258,-22.25 12.3,0 22.269,9.961 22.269,22.25 0,12.305 -9.969,22.266 -22.269,22.266 -12.291,-0.003 -22.258,-9.962 -22.258,-22.266"
   inkscape:connector-curvature="0"
   style="fill:#99a1c3" />

	<path
   id="path1944"
   d="m 202.288,107.016 c 0,-12.211 9.912,-22.115 22.123,-22.115 12.219,0 22.132,9.904 22.132,22.115 0,12.233 -9.913,22.131 -22.132,22.131 -12.216,-0.001 -22.123,-9.898 -22.123,-22.131"
   inkscape:connector-curvature="0"
   style="fill:#98a0c3" />

	<path
   id="path1946"
   d="m 202.43,107.016 c 0,-12.123 9.84,-21.979 21.978,-21.979 12.146,0 21.984,9.859 21.984,21.979 0,12.154 -9.838,21.995 -21.984,21.995 -12.138,0 -21.978,-9.841 -21.978,-21.995"
   inkscape:connector-curvature="0"
   style="fill:#979fc2" />

	<path
   id="path1948"
   d="m 202.568,107.016 c 0,-12.053 9.774,-21.836 21.839,-21.836 12.066,0 21.854,9.783 21.854,21.836 0,12.075 -9.787,21.852 -21.854,21.852 -12.064,-0.002 -21.839,-9.777 -21.839,-21.852"
   inkscape:connector-curvature="0"
   style="fill:#969ec2" />

	<path
   id="path1950"
   d="m 202.706,107.016 c 0,-11.964 9.719,-21.693 21.701,-21.693 11.996,0 21.71,9.729 21.71,21.693 0,11.994 -9.716,21.715 -21.71,21.715 -11.983,-0.001 -21.701,-9.721 -21.701,-21.715"
   inkscape:connector-curvature="0"
   style="fill:#969ec1" />

	<path
   id="path1952"
   d="m 202.842,107.016 c 0,-11.899 9.653,-21.558 21.565,-21.558 11.915,0 21.568,9.657 21.568,21.558 0,11.924 -9.653,21.58 -21.568,21.58 -11.912,0 -21.565,-9.658 -21.565,-21.58"
   inkscape:connector-curvature="0"
   style="fill:#959dc1" />

	<path
   id="path1954"
   d="m 245.839,107.016 c 0,11.836 -9.595,21.438 -21.432,21.438 -11.823,0 -21.423,-9.599 -21.423,-21.438 0,-11.82 9.596,-21.422 21.423,-21.422 11.837,0 21.432,9.599 21.432,21.422"
   inkscape:connector-curvature="0"
   style="fill:#949cc0" />

	<path
   id="path1956"
   d="m 203.16,107.016 c 0,-11.727 9.51,-21.248 21.251,-21.248 11.747,0 21.261,9.521 21.261,21.248 0,11.748 -9.515,21.262 -21.261,21.262 -11.742,-0.001 -21.251,-9.514 -21.251,-21.262"
   inkscape:connector-curvature="0"
   style="fill:#939bc0" />

	<path
   id="path1958"
   d="m 203.338,107.016 c 0,-11.623 9.428,-21.064 21.072,-21.064 11.644,0 21.082,9.441 21.082,21.064 0,11.653 -9.433,21.088 -21.082,21.088 -11.643,0 -21.072,-9.435 -21.072,-21.088"
   inkscape:connector-curvature="0"
   style="fill:#929abf" />

	<path
   id="path1960"
   d="m 203.51,107.016 c 0,-11.535 9.358,-20.896 20.901,-20.896 11.546,0 20.912,9.361 20.912,20.896 0,11.56 -9.365,20.914 -20.912,20.914 -11.547,0 -20.901,-9.356 -20.901,-20.914"
   inkscape:connector-curvature="0"
   style="fill:#9199be" />

	<path
   id="path1962"
   d="m 203.681,107.016 c 0,-11.438 9.281,-20.723 20.73,-20.723 11.454,0 20.74,9.283 20.74,20.723 0,11.463 -9.282,20.737 -20.74,20.737 -11.45,0 -20.73,-9.274 -20.73,-20.737"
   inkscape:connector-curvature="0"
   style="fill:#9099be" />

	<path
   id="path1964"
   d="m 203.851,107.016 c 0,-11.336 9.214,-20.557 20.561,-20.557 11.359,0 20.561,9.221 20.561,20.557 0,11.367 -9.201,20.562 -20.561,20.562 -11.353,-0.001 -20.561,-9.195 -20.561,-20.562"
   inkscape:connector-curvature="0"
   style="fill:#8f98bd" />

	<path
   id="path1966"
   d="m 204.026,107.016 c 0,-11.248 9.124,-20.373 20.388,-20.373 11.263,0 20.388,9.125 20.388,20.373 0,11.271 -9.125,20.396 -20.388,20.396 -11.261,-0.001 -20.388,-9.125 -20.388,-20.396"
   inkscape:connector-curvature="0"
   style="fill:#8f97bd" />

	<path
   id="path1968"
   d="m 204.198,107.016 c 0,-11.154 9.054,-20.205 20.209,-20.205 11.169,0 20.215,9.051 20.215,20.205 0,11.168 -9.046,20.221 -20.215,20.221 -11.155,-10e-4 -20.209,-9.053 -20.209,-20.221"
   inkscape:connector-curvature="0"
   style="fill:#8e96bc" />

	<path
   id="path1970"
   d="m 204.368,107.016 c 0,-11.058 8.977,-20.031 20.039,-20.031 11.07,0 20.047,8.975 20.047,20.031 0,11.072 -8.977,20.053 -20.047,20.053 -11.058,-0.001 -20.039,-8.981 -20.039,-20.053"
   inkscape:connector-curvature="0"
   style="fill:#8d95bc" />

	<path
   id="path1972"
   d="m 204.547,107.016 c 0,-10.971 8.892,-19.855 19.859,-19.855 10.973,0 19.864,8.886 19.864,19.855 0,10.985 -8.894,19.871 -19.864,19.871 -10.968,0 -19.859,-8.886 -19.859,-19.871"
   inkscape:connector-curvature="0"
   style="fill:#8c95bb" />

	<path
   id="path1974"
   d="m 204.718,107.016 c 0,-10.857 8.818,-19.681 19.688,-19.681 10.874,0 19.698,8.822 19.698,19.681 0,10.883 -8.824,19.696 -19.698,19.696 -10.87,0 -19.688,-8.816 -19.688,-19.696"
   inkscape:connector-curvature="0"
   style="fill:#8b94bb" />

	<path
   id="path1976"
   d="m 204.89,107.016 c 0,-10.771 8.74,-19.505 19.518,-19.505 10.789,0 19.523,8.736 19.523,19.505 0,10.785 -8.734,19.528 -19.523,19.528 -10.774,0 -19.518,-8.743 -19.518,-19.528"
   inkscape:connector-curvature="0"
   style="fill:#8a93ba" />

	<path
   id="path1978"
   d="m 205.067,107.016 c 0,-10.668 8.663,-19.34 19.339,-19.34 10.69,0 19.348,8.672 19.348,19.34 0,10.698 -8.657,19.354 -19.348,19.354 -10.676,-0.002 -19.339,-8.656 -19.339,-19.354"
   inkscape:connector-curvature="0"
   style="fill:#8992ba" />

	<path
   id="path1980"
   d="m 205.24,107.016 c 0,-10.572 8.58,-19.156 19.174,-19.156 10.582,0 19.175,8.584 19.175,19.156 0,10.594 -8.593,19.18 -19.175,19.18 -10.589,-0.003 -19.174,-8.587 -19.174,-19.18"
   inkscape:connector-curvature="0"
   style="fill:#8892b9" />

	<path
   id="path1982"
   d="m 205.411,107.016 c 0,-10.483 8.506,-18.996 18.996,-18.996 10.496,0 18.999,8.513 18.999,18.996 0,10.508 -8.503,19.004 -18.999,19.004 -10.491,0 -18.996,-8.497 -18.996,-19.004"
   inkscape:connector-curvature="0"
   style="fill:#8791b9" />

	<path
   id="path1984"
   d="m 205.582,107.016 c 0,-10.383 8.436,-18.812 18.825,-18.812 10.398,0 18.83,8.43 18.83,18.812 0,10.414 -8.432,18.836 -18.83,18.836 -10.386,0 -18.825,-8.422 -18.825,-18.836"
   inkscape:connector-curvature="0"
   style="fill:#8690b8" />

	<path
   id="path1986"
   d="m 205.761,107.016 c 0,-10.293 8.351,-18.64 18.646,-18.64 10.31,0 18.654,8.347 18.654,18.64 0,10.31 -8.345,18.662 -18.654,18.662 -10.297,0 -18.646,-8.354 -18.646,-18.662"
   inkscape:connector-curvature="0"
   style="fill:#858fb8" />

	<path
   id="path1988"
   d="m 205.932,107.016 c 0,-10.199 8.27,-18.464 18.482,-18.464 10.205,0 18.476,8.265 18.476,18.464 0,10.213 -8.271,18.479 -18.476,18.479 -10.209,-0.001 -18.482,-8.266 -18.482,-18.479"
   inkscape:connector-curvature="0"
   style="fill:#848fb7" />

	<path
   id="path1990"
   d="m 206.103,107.023 c 0,-10.1 8.199,-18.305 18.305,-18.305 10.107,0 18.306,8.205 18.306,18.305 0,10.109 -8.198,18.303 -18.306,18.303 -10.106,0 -18.305,-8.192 -18.305,-18.303"
   inkscape:connector-curvature="0"
   style="fill:#838eb7" />

	<path
   id="path1992"
   d="m 206.275,107.023 c 0,-10.017 8.12,-18.131 18.132,-18.131 10.02,0 18.13,8.114 18.13,18.131 0,10.016 -8.111,18.127 -18.13,18.127 -10.012,0 -18.132,-8.111 -18.132,-18.127"
   inkscape:connector-curvature="0"
   style="fill:#838db6" />

	<path
   id="path1994"
   d="m 206.455,107.023 c 0,-9.92 8.042,-17.955 17.959,-17.955 9.915,0 17.957,8.039 17.957,17.955 0,9.918 -8.047,17.961 -17.957,17.961 -9.917,0 -17.959,-8.043 -17.959,-17.961"
   inkscape:connector-curvature="0"
   style="fill:#828cb6" />

	<path
   id="path1996"
   d="m 206.626,107.023 c 0,-9.817 7.96,-17.787 17.781,-17.787 9.833,0 17.79,7.97 17.79,17.787 0,9.824 -7.957,17.777 -17.79,17.777 -9.821,0.002 -17.781,-7.952 -17.781,-17.777"
   inkscape:connector-curvature="0"
   style="fill:#818bb5" />

	<path
   id="path1998"
   d="m 206.796,107.023 c 0,-9.722 7.886,-17.613 17.61,-17.613 9.735,0 17.614,7.896 17.614,17.613 0,9.735 -7.883,17.617 -17.614,17.617 -9.724,0.003 -17.61,-7.88 -17.61,-17.617"
   inkscape:connector-curvature="0"
   style="fill:#808bb5" />

	<path
   id="path2000"
   d="m 206.976,107.023 c 0,-9.627 7.809,-17.431 17.432,-17.431 9.633,0 17.445,7.804 17.445,17.431 0,9.634 -7.812,17.438 -17.445,17.438 -9.625,0 -17.432,-7.804 -17.432,-17.438"
   inkscape:connector-curvature="0"
   style="fill:#7f8ab4" />

	<path
   id="path2002"
   d="m 207.146,107.023 c 0,-9.53 7.728,-17.264 17.269,-17.264 9.533,0 17.258,7.732 17.258,17.264 0,9.537 -7.725,17.262 -17.258,17.262 -9.538,0 -17.269,-7.724 -17.269,-17.262"
   inkscape:connector-curvature="0"
   style="fill:#7e89b4" />

	<path
   id="path2004"
   d="m 207.317,107.023 c 0,-9.437 7.656,-17.088 17.089,-17.088 9.436,0 17.097,7.651 17.097,17.088 0,9.449 -7.661,17.086 -17.097,17.086 -9.432,0 -17.089,-7.634 -17.089,-17.086"
   inkscape:connector-curvature="0"
   style="fill:#7d89b3" />

	<path
   id="path2006"
   d="m 207.497,107.023 c 0,-9.34 7.566,-16.922 16.91,-16.922 9.347,0 16.921,7.582 16.921,16.922 0,9.347 -7.574,16.918 -16.921,16.918 -9.344,0 -16.91,-7.571 -16.91,-16.918"
   inkscape:connector-curvature="0"
   style="fill:#7c88b3" />

	<path
   id="path2008"
   d="m 207.668,107.023 c 0,-9.248 7.493,-16.737 16.738,-16.737 9.254,0 16.755,7.489 16.755,16.737 0,9.248 -7.501,16.744 -16.755,16.744 -9.245,0.003 -16.738,-7.501 -16.738,-16.744"
   inkscape:connector-curvature="0"
   style="fill:#7b87b2" />

	<path
   id="path2010"
   d="m 207.839,107.023 c 0,-9.148 7.42,-16.578 16.568,-16.578 9.156,0 16.572,7.43 16.572,16.578 0,9.154 -7.416,16.568 -16.572,16.568 -9.148,0.002 -16.568,-7.411 -16.568,-16.568"
   inkscape:connector-curvature="0"
   style="fill:#7a86b2" />

	<path
   id="path2012"
   d="m 208.014,107.023 c 0,-9.055 7.338,-16.396 16.394,-16.396 9.062,0 16.4,7.348 16.4,16.396 0,9.061 -7.342,16.386 -16.4,16.386 -9.056,0 -16.394,-7.325 -16.394,-16.386"
   inkscape:connector-curvature="0"
   style="fill:#7a86b1" />

	<path
   id="path2014"
   d="m 208.188,107.023 c 0,-8.965 7.26,-16.222 16.219,-16.222 8.96,0 16.229,7.257 16.229,16.222 0,8.965 -7.269,16.228 -16.229,16.228 -8.959,0 -16.219,-7.263 -16.219,-16.228"
   inkscape:connector-curvature="0"
   style="fill:#7985b1" />

	<path
   id="path2016"
   d="m 240.462,107.023 c 0,8.869 -7.184,16.045 -16.051,16.045 -8.854,0 -16.042,-7.176 -16.042,-16.045 0,-8.862 7.191,-16.053 16.042,-16.053 8.867,0.001 16.051,7.191 16.051,16.053"
   inkscape:connector-curvature="0"
   style="fill:#7884b0" />

	<path
   id="path2018"
   d="m 208.67,107.031 c 0,-8.695 7.045,-15.742 15.736,-15.742 8.692,0 15.737,7.047 15.737,15.742 0,8.687 -7.045,15.727 -15.737,15.727 -8.69,0 -15.736,-7.04 -15.736,-15.727"
   inkscape:connector-curvature="0"
   style="fill:#7783b0" />

	<path
   id="path2020"
   d="m 208.974,107.031 c 0,-8.512 6.897,-15.417 15.417,-15.417 8.529,0 15.435,6.905 15.435,15.417 0,8.525 -6.905,15.424 -15.435,15.424 -8.516,0 -15.417,-6.896 -15.417,-15.424"
   inkscape:connector-curvature="0"
   style="fill:#7683af" />

	<path
   id="path2022"
   d="m 209.285,107.039 c 0,-8.354 6.762,-15.105 15.103,-15.105 8.356,0 15.121,6.752 15.121,15.105 0,8.345 -6.765,15.113 -15.121,15.113 -8.342,0 -15.103,-6.768 -15.103,-15.113"
   inkscape:connector-curvature="0"
   style="fill:#7582af" />

	<path
   id="path2024"
   d="m 209.591,107.046 c 0,-8.17 6.622,-14.795 14.791,-14.795 8.182,0 14.807,6.625 14.807,14.795 0,8.171 -6.625,14.798 -14.807,14.798 -8.169,0 -14.791,-6.627 -14.791,-14.798"
   inkscape:connector-curvature="0"
   style="fill:#7481ae" />

	<path
   id="path2026"
   d="m 209.898,107.046 c 0,-8.002 6.485,-14.483 14.483,-14.483 7.995,0 14.493,6.481 14.493,14.483 0,8.013 -6.498,14.491 -14.493,14.491 -7.997,-0.004 -14.483,-6.478 -14.483,-14.491"
   inkscape:connector-curvature="0"
   style="fill:#7480ae" />

	<path
   id="path2028"
   d="m 210.198,107.055 c 0,-7.818 6.349,-14.166 14.173,-14.166 7.832,0 14.174,6.348 14.174,14.166 0,7.828 -6.346,14.172 -14.174,14.172 -7.824,-0.004 -14.173,-6.344 -14.173,-14.172"
   inkscape:connector-curvature="0"
   style="fill:#7380ad" />

	<path
   id="path2030"
   d="m 210.509,107.055 c 0,-7.645 6.206,-13.845 13.854,-13.845 7.656,0 13.867,6.2 13.867,13.845 0,7.66 -6.211,13.857 -13.867,13.857 -7.644,0 -13.854,-6.197 -13.854,-13.857"
   inkscape:connector-curvature="0"
   style="fill:#727fad" />

	<path
   id="path2032"
   d="m 210.812,107.055 c 0,-7.469 6.064,-13.537 13.547,-13.537 7.486,0 13.545,6.068 13.545,13.537 0,7.502 -6.059,13.555 -13.545,13.555 -7.483,-0.001 -13.547,-6.053 -13.547,-13.555"
   inkscape:connector-curvature="0"
   style="fill:#717eac" />

	<path
   id="path2034"
   d="m 211.123,107.07 c 0,-7.312 5.924,-13.235 13.236,-13.235 7.307,0 13.23,5.925 13.23,13.235 0,7.31 -5.925,13.238 -13.23,13.238 -7.313,10e-4 -13.236,-5.927 -13.236,-13.238"
   inkscape:connector-curvature="0"
   style="fill:#707eac" />

	<path
   id="path2036"
   d="m 211.426,107.07 c 0,-7.135 5.783,-12.918 12.924,-12.918 7.136,0 12.923,5.783 12.923,12.918 0,7.144 -5.787,12.928 -12.923,12.928 -7.141,0 -12.924,-5.784 -12.924,-12.928"
   inkscape:connector-curvature="0"
   style="fill:#6f7dab" />

	<path
   id="path2038"
   d="m 211.732,107.079 c 0,-6.961 5.647,-12.601 12.612,-12.601 6.963,0 12.607,5.64 12.607,12.601 0,6.969 -5.646,12.608 -12.607,12.608 -6.964,0.001 -12.612,-5.639 -12.612,-12.608"
   inkscape:connector-curvature="0"
   style="fill:#6e7cab" />

	<path
   id="path2040"
   d="m 212.037,107.087 c 0,-6.785 5.508,-12.304 12.3,-12.304 6.789,0 12.301,5.519 12.301,12.304 0,6.793 -5.512,12.29 -12.301,12.29 -6.793,0 -12.3,-5.497 -12.3,-12.29"
   inkscape:connector-curvature="0"
   style="fill:#6d7baa" />

	<path
   id="path2042"
   d="m 212.343,107.087 c 0,-6.61 5.372,-11.972 11.974,-11.972 6.627,0 11.991,5.359 11.991,11.972 0,6.617 -5.364,11.976 -11.991,11.976 -6.598,0.003 -11.974,-5.359 -11.974,-11.976"
   inkscape:connector-curvature="0"
   style="fill:#6c7ba9" />

	<path
   id="path2044"
   d="m 212.658,107.096 c 0,-6.445 5.216,-11.672 11.662,-11.672 6.444,0 11.679,5.227 11.679,11.672 0,6.45 -5.234,11.678 -11.679,11.678 -6.446,-0.003 -11.662,-5.228 -11.662,-11.678"
   inkscape:connector-curvature="0"
   style="fill:#6b7aa9" />

	<path
   id="path2046"
   d="m 212.961,107.104 c 0,-6.276 5.083,-11.36 11.352,-11.36 6.281,0 11.364,5.084 11.364,11.36 0,6.268 -5.083,11.353 -11.364,11.353 -6.268,-0.002 -11.352,-5.087 -11.352,-11.353"
   inkscape:connector-curvature="0"
   style="fill:#6a79a9" />

	<path
   id="path2048"
   d="m 213.268,107.104 c 0,-6.102 4.939,-11.043 11.041,-11.043 6.099,0 11.038,4.941 11.038,11.043 0,6.092 -4.939,11.049 -11.038,11.049 -6.102,-0.003 -11.041,-4.958 -11.041,-11.049"
   inkscape:connector-curvature="0"
   style="fill:#6979a8" />

	<path
   id="path2050"
   d="m 213.574,107.109 c 0,-5.918 4.806,-10.73 10.728,-10.73 5.935,0 10.731,4.812 10.731,10.73 0,5.936 -4.798,10.731 -10.731,10.731 -5.923,0.002 -10.728,-4.795 -10.728,-10.731"
   inkscape:connector-curvature="0"
   style="fill:#6978a8" />

	<path
   id="path2052"
   d="m 213.879,107.117 c 0,-5.76 4.667,-10.411 10.422,-10.411 5.755,0 10.415,4.651 10.415,10.411 0,5.752 -4.66,10.414 -10.415,10.414 -5.755,0 -10.422,-4.662 -10.422,-10.414"
   inkscape:connector-curvature="0"
   style="fill:#6877a7" />

	<path
   id="path2054"
   d="m 214.192,107.117 c 0,-5.575 4.524,-10.104 10.102,-10.104 5.576,0 10.104,4.527 10.104,10.104 0,5.586 -4.528,10.109 -10.104,10.109 -5.577,0.003 -10.102,-4.523 -10.102,-10.109"
   inkscape:connector-curvature="0"
   style="fill:#6777a7" />

	<path
   id="path2056"
   d="m 214.497,107.125 c 0,-5.408 4.375,-9.792 9.788,-9.792 5.414,0 9.791,4.384 9.791,9.792 0,5.41 -4.377,9.787 -9.791,9.787 -5.413,0 -9.788,-4.377 -9.788,-9.787"
   inkscape:connector-curvature="0"
   style="fill:#6676a6" />

	<path
   id="path2058"
   d="m 214.804,107.125 c 0,-5.232 4.239,-9.475 9.479,-9.475 5.231,0 9.473,4.242 9.473,9.475 0,5.242 -4.24,9.491 -9.473,9.491 -5.24,0 -9.479,-4.249 -9.479,-9.491"
   inkscape:connector-curvature="0"
   style="fill:#6575a6" />

	<path
   id="path2060"
   d="m 233.44,107.135 c 0,5.067 -4.106,9.164 -9.159,9.164 -5.071,0 -9.181,-4.097 -9.181,-9.164 0,-5.061 4.109,-9.156 9.181,-9.156 5.053,0 9.159,4.095 9.159,9.156"
   inkscape:connector-curvature="0"
   style="fill:#6475a5" />

	<g
   id="g2083"
   style="opacity:0.51999996">
		<g
   id="g2081">
			<g
   id="g2079">
				<g
   id="g2077">
					<g
   id="g2075">
						<defs
   id="defs2063">
							<path
   d="m 250.597,107.031 c 0,14.453 -11.722,26.178 -26.189,26.178 -14.462,0 -26.188,-11.725 -26.188,-26.178 0,-14.471 11.726,-26.191 26.188,-26.191 14.467,0 26.189,11.722 26.189,26.191"
   id="path2487"
   inkscape:connector-curvature="0" />

						</defs>

						<clipPath
   id="SVGID_2_">
							<use
   id="use2065"
   overflow="visible"
   xlink:href="#SVGID_1_"
   style="overflow:visible"
   x="0"
   y="0"
   width="100%"
   height="100%" />

						</clipPath>

						
							<linearGradient
   gradientTransform="matrix(4.7924,5.3225,5.3225,-4.7924,-397.177,6112.1763)"
   y2="625.5332"
   x2="-561.36969"
   y1="625.5332"
   x1="-568.68073"
   gradientUnits="userSpaceOnUse"
   id="SVGID_3_">
							<stop
   id="stop2068"
   style="stop-color:#FFFFFF"
   offset="0" />

							<stop
   id="stop2070"
   style="stop-color:#234A88"
   offset="1" />

						</linearGradient>

						<polygon
   id="polygon2073"
   points="227.148,54.801 276.64,109.768 221.674,159.264 172.178,104.286 "
   clip-path="url(#SVGID_2_)"
   style="fill:url(#SVGID_3_)" />

					</g>

				</g>

			</g>

		</g>

	</g>

	<path
   id="path2085"
   d="m 272.685,34.216 c 0,9.486 -7.699,17.185 -17.177,17.185 -9.489,0 -17.187,-7.698 -17.187,-17.185 0,-9.479 7.697,-17.174 17.187,-17.174 9.477,0 17.177,7.695 17.177,17.174"
   inkscape:connector-curvature="0"
   style="fill:#949cc0" />

	<path
   id="path2087"
   d="m 238.414,34.216 c 0,-9.436 7.651,-17.092 17.094,-17.092 9.439,0 17.091,7.656 17.091,17.092 0,9.443 -7.65,17.095 -17.091,17.095 -9.443,0.004 -17.094,-7.648 -17.094,-17.095"
   inkscape:connector-curvature="0"
   style="fill:#959dc1" />

	<path
   id="path2089"
   d="m 238.489,34.216 c 0,-9.394 7.619,-17.006 17.019,-17.006 9.392,0 17.009,7.612 17.009,17.006 0,9.401 -7.617,17.022 -17.009,17.022 -9.4,0 -17.019,-7.62 -17.019,-17.022"
   inkscape:connector-curvature="0"
   style="fill:#969ec1" />

	<path
   id="path2091"
   d="m 238.567,34.216 c 0,-9.354 7.582,-16.933 16.933,-16.933 9.362,0 16.94,7.579 16.94,16.933 0,9.357 -7.578,16.94 -16.94,16.94 -9.351,0 -16.933,-7.583 -16.933,-16.94"
   inkscape:connector-curvature="0"
   style="fill:#969ec2" />

	<path
   id="path2093"
   d="m 238.647,34.216 c 0,-9.3 7.549,-16.86 16.853,-16.86 9.319,0 16.86,7.555 16.86,16.86 0,9.312 -7.541,16.871 -16.86,16.871 -9.304,0 -16.853,-7.559 -16.853,-16.871"
   inkscape:connector-curvature="0"
   style="fill:#979fc2" />

	<path
   id="path2095"
   d="m 238.728,34.216 c 0,-9.265 7.504,-16.778 16.779,-16.778 9.256,0 16.78,7.513 16.78,16.778 0,9.271 -7.524,16.781 -16.78,16.781 -9.276,0 -16.779,-7.505 -16.779,-16.781"
   inkscape:connector-curvature="0"
   style="fill:#98a0c3" />

	<path
   id="path2097"
   d="m 238.808,34.216 c 0,-9.223 7.479,-16.693 16.705,-16.693 9.219,0 16.696,7.47 16.696,16.693 0,9.23 -7.478,16.708 -16.696,16.708 -9.228,0 -16.705,-7.478 -16.705,-16.708"
   inkscape:connector-curvature="0"
   style="fill:#99a1c3" />

	<path
   id="path2099"
   d="m 238.883,34.216 c 0,-9.176 7.44,-16.615 16.617,-16.615 9.192,0 16.63,7.439 16.63,16.615 0,9.187 -7.438,16.626 -16.63,16.626 -9.177,0.001 -16.617,-7.439 -16.617,-16.626"
   inkscape:connector-curvature="0"
   style="fill:#9aa1c4" />

	<path
   id="path2101"
   d="m 238.966,34.216 c 0,-9.137 7.402,-16.542 16.538,-16.542 9.142,0 16.556,7.404 16.556,16.542 0,9.136 -7.414,16.554 -16.556,16.554 -9.136,0.004 -16.538,-7.417 -16.538,-16.554"
   inkscape:connector-curvature="0"
   style="fill:#9ba2c4" />

	<path
   id="path2103"
   d="m 239.041,34.216 c 0,-9.094 7.367,-16.466 16.467,-16.466 9.089,0 16.468,7.373 16.468,16.466 0,9.101 -7.379,16.467 -16.468,16.467 -9.1,10e-4 -16.467,-7.362 -16.467,-16.467"
   inkscape:connector-curvature="0"
   style="fill:#9ca3c5" />

	<path
   id="path2105"
   d="m 239.118,34.216 c 0,-9.052 7.333,-16.377 16.39,-16.377 9.05,0 16.375,7.328 16.375,16.377 0,9.059 -7.331,16.391 -16.375,16.391 -9.057,0.004 -16.39,-7.332 -16.39,-16.391"
   inkscape:connector-curvature="0"
   style="fill:#9da4c5" />

	<path
   id="path2107"
   d="m 239.197,34.216 c 0,-9.012 7.298,-16.307 16.303,-16.307 9.013,0 16.315,7.295 16.315,16.307 0,9.015 -7.303,16.314 -16.315,16.314 -9.005,0 -16.303,-7.299 -16.303,-16.314"
   inkscape:connector-curvature="0"
   style="fill:#9ea4c6" />

	<path
   id="path2109"
   d="m 239.276,34.216 c 0,-8.967 7.271,-16.222 16.224,-16.222 8.97,0 16.231,7.255 16.231,16.222 0,8.969 -7.264,16.24 -16.231,16.24 -8.953,0.005 -16.224,-7.27 -16.224,-16.24"
   inkscape:connector-curvature="0"
   style="fill:#9ea5c7" />

	<path
   id="path2111"
   d="m 239.354,34.216 c 0,-8.915 7.23,-16.144 16.146,-16.144 8.913,0 16.161,7.225 16.161,16.144 0,8.93 -7.24,16.155 -16.161,16.155 -8.914,0 -16.146,-7.221 -16.146,-16.155"
   inkscape:connector-curvature="0"
   style="fill:#9fa6c7" />

	<path
   id="path2113"
   d="m 239.433,34.216 c 0,-8.873 7.201,-16.062 16.075,-16.062 8.874,0 16.072,7.193 16.072,16.062 0,8.88 -7.202,16.077 -16.072,16.077 -8.882,0.004 -16.075,-7.197 -16.075,-16.077"
   inkscape:connector-curvature="0"
   style="fill:#a0a7c8" />

	<path
   id="path2115"
   d="m 239.508,34.216 c 0,-8.833 7.159,-15.993 15.992,-15.993 8.834,0 16.001,7.159 16.001,15.993 0,8.834 -7.167,16 -16.001,16 -8.833,0 -15.992,-7.165 -15.992,-16"
   inkscape:connector-curvature="0"
   style="fill:#a1a8c8" />

	<path
   id="path2117"
   d="m 239.59,34.216 c 0,-8.787 7.119,-15.907 15.91,-15.907 8.785,0 15.914,7.12 15.914,15.907 0,8.79 -7.129,15.926 -15.914,15.926 -8.791,10e-4 -15.91,-7.136 -15.91,-15.926"
   inkscape:connector-curvature="0"
   style="fill:#a2a8c9" />

	<path
   id="path2119"
   d="m 239.666,34.216 c 0,-8.744 7.088,-15.83 15.834,-15.83 8.755,0 15.839,7.083 15.839,15.83 0,8.743 -7.084,15.84 -15.839,15.84 -8.737,0.001 -15.834,-7.093 -15.834,-15.84"
   inkscape:connector-curvature="0"
   style="fill:#a3a9c9" />

	<path
   id="path2121"
   d="m 271.254,34.216 c 0,8.701 -7.048,15.754 -15.746,15.754 -8.706,0 -15.764,-7.053 -15.764,-15.754 0,-8.699 7.058,-15.748 15.764,-15.748 8.698,0 15.746,7.054 15.746,15.748"
   inkscape:connector-curvature="0"
   style="fill:#a4aaca" />

	<path
   id="path2123"
   d="m 239.897,34.216 c 0,-8.609 6.982,-15.604 15.609,-15.604 8.619,0 15.604,6.995 15.604,15.604 0,8.619 -6.983,15.604 -15.604,15.604 -8.625,0 -15.609,-6.985 -15.609,-15.604"
   inkscape:connector-curvature="0"
   style="fill:#a3a9c9" />

	<path
   id="path2125"
   d="m 240.056,34.216 c 0,-8.531 6.904,-15.452 15.444,-15.452 8.531,0 15.461,6.921 15.461,15.452 0,8.539 -6.93,15.458 -15.461,15.458 -8.54,10e-4 -15.444,-6.919 -15.444,-15.458"
   inkscape:connector-curvature="0"
   style="fill:#a2a8c9" />

	<path
   id="path2127"
   d="m 240.2,34.216 c 0,-8.446 6.854,-15.293 15.3,-15.293 8.452,0 15.306,6.847 15.306,15.293 0,8.457 -6.854,15.307 -15.306,15.307 -8.446,0 -15.3,-6.85 -15.3,-15.307"
   inkscape:connector-curvature="0"
   style="fill:#a1a8c8" />

	<path
   id="path2129"
   d="m 240.351,34.216 c 0,-8.368 6.777,-15.145 15.149,-15.145 8.369,0 15.153,6.777 15.153,15.145 0,8.371 -6.784,15.157 -15.153,15.157 -8.372,0 -15.149,-6.786 -15.149,-15.157"
   inkscape:connector-curvature="0"
   style="fill:#a0a7c8" />

	<path
   id="path2131"
   d="m 240.509,34.216 c 0,-8.274 6.715,-14.986 15.004,-14.986 8.271,0 14.995,6.708 14.995,14.986 0,8.286 -6.714,15.001 -14.995,15.001 -8.289,0.001 -15.004,-6.715 -15.004,-15.001"
   inkscape:connector-curvature="0"
   style="fill:#9fa6c7" />

	<path
   id="path2133"
   d="m 240.661,34.216 c 0,-8.197 6.648,-14.843 14.852,-14.843 8.188,0 14.844,6.646 14.844,14.843 0,8.2 -6.654,14.842 -14.844,14.842 -8.201,10e-4 -14.852,-6.642 -14.852,-14.842"
   inkscape:connector-curvature="0"
   style="fill:#9ea5c7" />

	<path
   id="path2135"
   d="m 240.812,34.216 c 0,-8.107 6.582,-14.686 14.688,-14.686 8.118,0 14.705,6.579 14.705,14.686 0,8.114 -6.587,14.697 -14.705,14.697 -8.106,0.004 -14.688,-6.582 -14.688,-14.697"
   inkscape:connector-curvature="0"
   style="fill:#9ea4c6" />

	<path
   id="path2137"
   d="m 240.964,34.216 c 0,-8.026 6.514,-14.535 14.536,-14.535 8.043,0 14.545,6.513 14.545,14.535 0,8.024 -6.506,14.542 -14.545,14.542 -8.03,0.004 -14.536,-6.512 -14.536,-14.542"
   inkscape:connector-curvature="0"
   style="fill:#9da4c5" />

	<path
   id="path2139"
   d="m 241.118,34.216 c 0,-7.937 6.439,-14.379 14.382,-14.379 7.943,0 14.388,6.443 14.388,14.379 0,7.951 -6.445,14.391 -14.388,14.391 -7.943,0 -14.382,-6.44 -14.382,-14.391"
   inkscape:connector-curvature="0"
   style="fill:#9ca3c5" />

	<path
   id="path2141"
   d="m 241.269,34.216 c 0,-7.858 6.377,-14.229 14.231,-14.229 7.871,0 14.248,6.371 14.248,14.229 0,7.865 -6.377,14.24 -14.248,14.24 -7.854,0 -14.231,-6.374 -14.231,-14.24"
   inkscape:connector-curvature="0"
   style="fill:#9ba2c4" />

	<path
   id="path2143"
   d="m 241.417,34.216 c 0,-7.765 6.307,-14.08 14.091,-14.08 7.776,0 14.08,6.314 14.08,14.08 0,7.784 -6.304,14.084 -14.08,14.084 -7.784,0.001 -14.091,-6.3 -14.091,-14.084"
   inkscape:connector-curvature="0"
   style="fill:#9aa1c4" />

	<path
   id="path2145"
   d="m 241.575,34.216 c 0,-7.688 6.229,-13.932 13.925,-13.932 7.696,0 13.94,6.244 13.94,13.932 0,7.694 -6.244,13.943 -13.94,13.943 -7.688,10e-4 -13.925,-6.248 -13.925,-13.943"
   inkscape:connector-curvature="0"
   style="fill:#99a1c3" />

	<path
   id="path2147"
   d="m 241.726,34.216 c 0,-7.602 6.17,-13.773 13.774,-13.773 7.608,0 13.791,6.171 13.791,13.773 0,7.614 -6.183,13.785 -13.791,13.785 -7.604,0 -13.774,-6.171 -13.774,-13.785"
   inkscape:connector-curvature="0"
   style="fill:#98a0c3" />

	<path
   id="path2149"
   d="m 241.87,34.216 c 0,-7.525 6.102,-13.623 13.63,-13.623 7.534,0 13.631,6.098 13.631,13.623 0,7.532 -6.097,13.629 -13.631,13.629 -7.522,10e-4 -13.63,-6.097 -13.63,-13.629"
   inkscape:connector-curvature="0"
   style="fill:#979fc2" />

	<path
   id="path2151"
   d="m 242.036,34.216 c 0,-7.439 6.021,-13.467 13.468,-13.467 7.445,0 13.483,6.024 13.483,13.467 0,7.446 -6.03,13.478 -13.483,13.478 -7.446,0 -13.468,-6.036 -13.468,-13.478"
   inkscape:connector-curvature="0"
   style="fill:#969ec2" />

	<path
   id="path2153"
   d="m 242.188,34.216 c 0,-7.354 5.957,-13.322 13.318,-13.322 7.354,0 13.32,5.972 13.32,13.322 0,7.365 -5.967,13.324 -13.32,13.324 -7.36,0.004 -13.318,-5.959 -13.318,-13.324"
   inkscape:connector-curvature="0"
   style="fill:#969ec1" />

	<path
   id="path2155"
   d="m 242.331,34.216 c 0,-7.265 5.898,-13.163 13.169,-13.163 7.274,0 13.177,5.898 13.177,13.163 0,7.279 -5.9,13.178 -13.177,13.178 -7.271,0.004 -13.169,-5.899 -13.169,-13.178"
   inkscape:connector-curvature="0"
   style="fill:#959dc1" />

	<path
   id="path2157"
   d="m 268.526,34.216 c 0,7.202 -5.832,13.026 -13.026,13.026 -7.188,0 -13.011,-5.829 -13.011,-13.026 0,-7.183 5.832,-13.016 13.011,-13.016 7.198,0 13.026,5.838 13.026,13.016"
   inkscape:connector-curvature="0"
   style="fill:#949cc0" />

	<g
   id="g2180"
   style="opacity:0.51999996">
		<g
   id="g2178">
			<g
   id="g2176">
				<g
   id="g2174">
					<g
   id="g2172">
						<defs
   id="defs2160">
							<path
   d="m 272.674,34.216 c 0,9.486 -7.696,17.168 -17.174,17.168 -9.478,0 -17.163,-7.682 -17.163,-17.168 0,-9.464 7.686,-17.15 17.163,-17.15 9.477,0 17.174,7.686 17.174,17.15"
   id="path2538"
   inkscape:connector-curvature="0" />

						</defs>

						<clipPath
   id="SVGID_5_">
							<use
   id="use2162"
   overflow="visible"
   xlink:href="#SVGID_4_"
   style="overflow:visible"
   x="0"
   y="0"
   width="100%"
   height="100%" />

						</clipPath>

						
							<linearGradient
   gradientTransform="matrix(3.1409,3.4883,3.4883,-3.1409,-324.266,3689.4766)"
   y2="612.84961"
   x2="-492.396"
   y1="612.84961"
   x1="-499.7095"
   gradientUnits="userSpaceOnUse"
   id="SVGID_6_">
							<stop
   id="stop2165"
   style="stop-color:#FFFFFF"
   offset="0" />

							<stop
   id="stop2167"
   style="stop-color:#234A88"
   offset="1" />

						</linearGradient>

						<polygon
   id="polygon2170"
   points="257.302,-0.015 289.74,36.022 253.714,68.454 221.273,32.433 "
   clip-path="url(#SVGID_5_)"
   style="fill:url(#SVGID_6_)" />

					</g>

				</g>

			</g>

		</g>

	</g>

	<path
   id="path2182"
   d="m 295.263,15.36 c 0,5.791 -4.701,10.488 -10.492,10.488 -5.804,0 -10.492,-4.697 -10.492,-10.488 0,-5.791 4.688,-10.493 10.492,-10.493 5.791,0 10.492,4.706 10.492,10.493"
   inkscape:connector-curvature="0"
   style="fill:#949cc0" />

	<path
   id="path2184"
   d="m 274.324,15.36 c 0,-5.772 4.666,-10.447 10.437,-10.447 5.77,0 10.446,4.675 10.446,10.447 0,5.763 -4.679,10.438 -10.446,10.438 -5.767,0.004 -10.437,-4.675 -10.437,-10.438"
   inkscape:connector-curvature="0"
   style="fill:#959dc1" />

	<path
   id="path2186"
   d="m 274.373,15.36 c 0,-5.744 4.653,-10.406 10.397,-10.406 5.733,0 10.396,4.662 10.396,10.406 0,5.731 -4.661,10.398 -10.396,10.398 -5.744,0.001 -10.397,-4.663 -10.397,-10.398"
   inkscape:connector-curvature="0"
   style="fill:#969ec1" />

	<path
   id="path2188"
   d="m 274.429,15.36 c 0,-5.714 4.621,-10.35 10.342,-10.35 5.707,0 10.349,4.636 10.349,10.35 0,5.701 -4.642,10.345 -10.349,10.345 -5.721,0 -10.342,-4.638 -10.342,-10.345"
   inkscape:connector-curvature="0"
   style="fill:#969ec2" />

	<path
   id="path2190"
   d="m 274.47,15.36 c 0,-5.69 4.605,-10.304 10.291,-10.304 5.688,0 10.303,4.614 10.303,10.304 0,5.689 -4.614,10.301 -10.303,10.301 -5.686,0.005 -10.291,-4.607 -10.291,-10.301"
   inkscape:connector-curvature="0"
   style="fill:#979fc2" />

	<path
   id="path2192"
   d="m 274.517,15.36 c 0,-5.667 4.594,-10.26 10.254,-10.26 5.655,0 10.254,4.593 10.254,10.26 0,5.662 -4.599,10.247 -10.254,10.247 -5.663,0 -10.254,-4.585 -10.254,-10.247"
   inkscape:connector-curvature="0"
   style="fill:#98a0c3" />

	<path
   id="path2194"
   d="m 274.567,15.352 c 0,-5.636 4.57,-10.198 10.203,-10.198 5.64,0 10.205,4.562 10.205,10.198 0,5.633 -4.565,10.203 -10.205,10.203 -5.63,-0.001 -10.203,-4.571 -10.203,-10.203"
   inkscape:connector-curvature="0"
   style="fill:#99a1c3" />

	<path
   id="path2196"
   d="m 274.619,15.352 c 0,-5.608 4.539,-10.154 10.151,-10.154 5.599,0 10.147,4.546 10.147,10.154 0,5.612 -4.55,10.162 -10.147,10.162 -5.612,0.004 -10.151,-4.55 -10.151,-10.162"
   inkscape:connector-curvature="0"
   style="fill:#9aa1c4" />

	<path
   id="path2198"
   d="m 274.658,15.352 c 0,-5.572 4.526,-10.096 10.103,-10.096 5.586,0 10.112,4.523 10.112,10.096 0,5.584 -4.526,10.109 -10.112,10.109 -5.576,0.004 -10.103,-4.521 -10.103,-10.109"
   inkscape:connector-curvature="0"
   style="fill:#9ba2c4" />

	<path
   id="path2200"
   d="m 274.71,15.352 c 0,-5.554 4.508,-10.054 10.061,-10.054 5.547,0 10.056,4.497 10.056,10.054 0,5.561 -4.504,10.069 -10.056,10.069 C 279.218,25.42 274.71,20.916 274.71,15.352"
   inkscape:connector-curvature="0"
   style="fill:#9ca3c5" />

	<path
   id="path2202"
   d="m 274.763,15.352 c 0,-5.526 4.479,-10.011 10.008,-10.011 5.527,0 10.006,4.485 10.006,10.011 0,5.523 -4.479,10.012 -10.006,10.012 -5.538,-0.001 -10.008,-4.486 -10.008,-10.012"
   inkscape:connector-curvature="0"
   style="fill:#9da4c5" />

	<path
   id="path2204"
   d="m 274.804,15.352 c 0,-5.502 4.463,-9.953 9.957,-9.953 5.508,0 9.969,4.454 9.969,9.953 0,5.499 -4.461,9.96 -9.969,9.96 -5.494,0.003 -9.957,-4.462 -9.957,-9.96"
   inkscape:connector-curvature="0"
   style="fill:#9ea4c6" />

	<path
   id="path2206"
   d="m 274.854,15.352 c 0,-5.469 4.438,-9.914 9.916,-9.914 5.472,0 9.91,4.445 9.91,9.914 0,5.487 -4.438,9.922 -9.91,9.922 -5.477,0 -9.916,-4.435 -9.916,-9.922"
   inkscape:connector-curvature="0"
   style="fill:#9ea5c7" />

	<path
   id="path2208"
   d="m 274.901,15.352 c 0,-5.441 4.414,-9.863 9.869,-9.863 5.439,0 9.862,4.422 9.862,9.863 0,5.457 -4.423,9.868 -9.862,9.868 -5.455,0 -9.869,-4.411 -9.869,-9.868"
   inkscape:connector-curvature="0"
   style="fill:#9fa6c7" />

	<path
   id="path2210"
   d="m 274.953,15.352 c 0,-5.413 4.392,-9.812 9.817,-9.812 5.42,0 9.812,4.398 9.812,9.812 0,5.425 -4.392,9.825 -9.812,9.825 -5.425,0.003 -9.817,-4.4 -9.817,-9.825"
   inkscape:connector-curvature="0"
   style="fill:#a0a7c8" />

	<path
   id="path2212"
   d="m 274.994,15.352 c 0,-5.393 4.374,-9.766 9.767,-9.766 5.398,0 9.77,4.374 9.77,9.766 0,5.397 -4.37,9.767 -9.77,9.767 -5.385,0.004 -9.767,-4.366 -9.767,-9.767"
   inkscape:connector-curvature="0"
   style="fill:#a1a8c8" />

	<path
   id="path2214"
   d="m 275.046,15.352 c 0,-5.363 4.348,-9.712 9.725,-9.712 5.365,0 9.722,4.345 9.722,9.712 0,5.368 -4.353,9.728 -9.722,9.728 -5.377,-10e-4 -9.725,-4.357 -9.725,-9.728"
   inkscape:connector-curvature="0"
   style="fill:#a2a8c9" />

	<path
   id="path2216"
   d="m 275.097,15.352 c 0,-5.335 4.327,-9.668 9.674,-9.668 5.342,0 9.672,4.333 9.672,9.668 0,5.348 -4.326,9.677 -9.672,9.677 -5.347,0 -9.674,-4.325 -9.674,-9.677"
   inkscape:connector-curvature="0"
   style="fill:#a3a9c9" />

	<path
   id="path2218"
   d="m 294.392,15.352 c 0,5.32 -4.308,9.634 -9.621,9.634 -5.318,0 -9.633,-4.317 -9.633,-9.634 0,-5.313 4.319,-9.619 9.633,-9.619 5.314,0 9.621,4.309 9.621,9.619"
   inkscape:connector-curvature="0"
   style="fill:#a4aaca" />

	<path
   id="path2220"
   d="m 275.235,15.352 c 0,-5.262 4.275,-9.526 9.535,-9.526 5.266,0 9.528,4.264 9.528,9.526 0,5.27 -4.264,9.539 -9.528,9.539 -5.259,-10e-4 -9.535,-4.269 -9.535,-9.539"
   inkscape:connector-curvature="0"
   style="fill:#a3a9c9" />

	<path
   id="path2222"
   d="m 275.319,15.352 c 0,-5.212 4.231,-9.44 9.441,-9.44 5.219,0 9.438,4.228 9.438,9.44 0,5.21 -4.222,9.437 -9.438,9.437 -5.208,0.003 -9.441,-4.222 -9.441,-9.437"
   inkscape:connector-curvature="0"
   style="fill:#a2a8c9" />

	<path
   id="path2224"
   d="m 275.422,15.352 c 0,-5.156 4.187,-9.343 9.349,-9.343 5.162,0 9.354,4.187 9.354,9.343 0,5.173 -4.192,9.348 -9.354,9.348 -5.165,-10e-4 -9.349,-4.176 -9.349,-9.348"
   inkscape:connector-curvature="0"
   style="fill:#a1a8c8" />

	<path
   id="path2226"
   d="m 275.511,15.352 c 0,-5.115 4.148,-9.249 9.26,-9.249 5.105,0 9.246,4.134 9.246,9.249 0,5.111 -4.141,9.258 -9.246,9.258 -5.112,0.003 -9.26,-4.148 -9.26,-9.258"
   inkscape:connector-curvature="0"
   style="fill:#a0a7c8" />

	<path
   id="path2228"
   d="m 275.604,15.352 c 0,-5.055 4.104,-9.156 9.166,-9.156 5.055,0 9.162,4.101 9.162,9.156 0,5.064 -4.107,9.168 -9.162,9.168 -5.061,0 -9.166,-4.101 -9.166,-9.168"
   inkscape:connector-curvature="0"
   style="fill:#9fa6c7" />

	<path
   id="path2230"
   d="m 275.694,15.352 c 0,-5.005 4.07,-9.07 9.076,-9.07 5.006,0 9.065,4.061 9.065,9.07 0,5.01 -4.056,9.071 -9.065,9.071 -5.003,-10e-4 -9.076,-4.058 -9.076,-9.071"
   inkscape:connector-curvature="0"
   style="fill:#9ea5c7" />

	<path
   id="path2232"
   d="m 275.788,15.352 c 0,-4.956 4.025,-8.969 8.982,-8.969 4.955,0 8.969,4.013 8.969,8.969 0,4.966 -4.014,8.981 -8.969,8.981 -4.957,0 -8.982,-4.015 -8.982,-8.981"
   inkscape:connector-curvature="0"
   style="fill:#9ea4c6" />

	<path
   id="path2234"
   d="m 275.881,15.352 c 0,-4.9 3.979,-8.869 8.89,-8.869 4.906,0 8.887,3.969 8.887,8.869 0,4.913 -3.979,8.884 -8.887,8.884 -4.911,-0.001 -8.89,-3.972 -8.89,-8.884"
   inkscape:connector-curvature="0"
   style="fill:#9da4c5" />

	<path
   id="path2236"
   d="m 275.972,15.352 c 0,-4.854 3.946,-8.785 8.799,-8.785 4.848,0 8.785,3.932 8.785,8.785 0,4.854 -3.938,8.799 -8.785,8.799 -4.853,-0.001 -8.799,-3.941 -8.799,-8.799"
   inkscape:connector-curvature="0"
   style="fill:#9ca3c5" />

	<path
   id="path2238"
   d="m 276.067,15.352 c 0,-4.792 3.896,-8.69 8.703,-8.69 4.805,0 8.693,3.898 8.693,8.69 0,4.807 -3.89,8.701 -8.693,8.701 -4.806,0 -8.703,-3.894 -8.703,-8.701"
   inkscape:connector-curvature="0"
   style="fill:#9ba2c4" />

	<path
   id="path2240"
   d="m 276.155,15.352 c 0,-4.741 3.857,-8.596 8.605,-8.596 4.758,0 8.604,3.855 8.604,8.596 0,4.757 -3.846,8.612 -8.604,8.612 -4.739,0.003 -8.605,-3.855 -8.605,-8.612"
   inkscape:connector-curvature="0"
   style="fill:#9aa1c4" />

	<path
   id="path2242"
   d="m 276.249,15.352 c 0,-4.69 3.818,-8.511 8.521,-8.511 4.699,0 8.512,3.821 8.512,8.511 0,4.706 -3.812,8.512 -8.512,8.512 -4.703,0 -8.521,-3.802 -8.521,-8.512"
   inkscape:connector-curvature="0"
   style="fill:#99a1c3" />

	<path
   id="path2244"
   d="m 276.347,15.352 c 0,-4.644 3.777,-8.41 8.424,-8.41 4.638,0 8.403,3.771 8.403,8.41 0,4.656 -3.767,8.419 -8.403,8.419 -4.647,0.003 -8.424,-3.764 -8.424,-8.419"
   inkscape:connector-curvature="0"
   style="fill:#98a0c3" />

	<path
   id="path2246"
   d="m 276.437,15.352 c 0,-4.585 3.729,-8.32 8.334,-8.32 4.605,0 8.32,3.735 8.32,8.32 0,4.598 -3.715,8.333 -8.32,8.333 -4.605,0 -8.334,-3.735 -8.334,-8.333"
   inkscape:connector-curvature="0"
   style="fill:#979fc2" />

	<path
   id="path2248"
   d="m 276.528,15.352 c 0,-4.54 3.689,-8.227 8.232,-8.227 4.547,0 8.232,3.681 8.232,8.227 0,4.555 -3.686,8.239 -8.232,8.239 -4.54,0.004 -8.232,-3.681 -8.232,-8.239"
   inkscape:connector-curvature="0"
   style="fill:#969ec2" />

	<path
   id="path2250"
   d="m 276.623,15.352 c 0,-4.488 3.651,-8.133 8.147,-8.133 4.498,0 8.133,3.649 8.133,8.133 0,4.497 -3.639,8.142 -8.133,8.142 -4.499,0 -8.147,-3.642 -8.147,-8.142"
   inkscape:connector-curvature="0"
   style="fill:#969ec1" />

	<path
   id="path2252"
   d="m 276.716,15.352 c 0,-4.434 3.607,-8.044 8.055,-8.044 4.445,0 8.041,3.61 8.041,8.044 0,4.448 -3.596,8.048 -8.041,8.048 -4.448,0 -8.055,-3.601 -8.055,-8.048"
   inkscape:connector-curvature="0"
   style="fill:#959dc1" />

	<path
   id="path2254"
   d="m 292.722,15.352 c 0,4.399 -3.564,7.955 -7.951,7.955 -4.398,0 -7.955,-3.556 -7.955,-7.955 0,-4.387 3.557,-7.942 7.955,-7.942 4.385,-0.001 7.951,3.555 7.951,7.942"
   inkscape:connector-curvature="0"
   style="fill:#949cc0" />

	<g
   id="g2277"
   style="opacity:0.51999996">
		<g
   id="g2275">
			<g
   id="g2273">
				<g
   id="g2271">
					<g
   id="g2269">
						<defs
   id="defs2257">
							<path
   d="m 295.301,15.36 c 0,5.812 -4.716,10.532 -10.53,10.532 -5.818,0 -10.533,-4.72 -10.533,-10.532 0,-5.823 4.715,-10.537 10.533,-10.537 5.814,10e-4 10.53,4.719 10.53,10.537"
   id="path2589"
   inkscape:connector-curvature="0" />

						</defs>

						<clipPath
   id="SVGID_8_">
							<use
   id="use2259"
   overflow="visible"
   xlink:href="#SVGID_7_"
   style="overflow:visible"
   x="0"
   y="0"
   width="100%"
   height="100%" />

						</clipPath>

						
							<linearGradient
   gradientTransform="matrix(1.9272,2.1404,2.1404,-1.9272,-270.5131,1914.337)"
   y2="584.44733"
   x2="-357.314"
   y1="584.44733"
   x1="-364.62839"
   gradientUnits="userSpaceOnUse"
   id="SVGID_9_">
							<stop
   id="stop2262"
   style="stop-color:#FFFFFF"
   offset="0" />

							<stop
   id="stop2264"
   style="stop-color:#234A88"
   offset="1" />

						</linearGradient>

						<polygon
   id="polygon2267"
   points="285.872,-5.643 305.774,16.459 283.663,36.365 263.761,14.26 "
   clip-path="url(#SVGID_8_)"
   style="fill:url(#SVGID_9_)" />

					</g>

				</g>

			</g>

		</g>

	</g>

	<path
   id="path2279"
   d="m 317.826,9.117 c 0,4.489 -3.64,8.12 -8.109,8.12 -4.485,0 -8.122,-3.635 -8.122,-8.12 0,-4.477 3.641,-8.117 8.122,-8.117 4.47,0 8.109,3.646 8.109,8.117"
   inkscape:connector-curvature="0"
   style="fill:#949cc0" />

	<path
   id="path2281"
   d="m 301.633,9.117 c 0,-4.464 3.624,-8.072 8.084,-8.072 4.453,0 8.069,3.611 8.069,8.072 0,4.467 -3.624,8.076 -8.069,8.076 -4.46,0.004 -8.084,-3.609 -8.084,-8.076"
   inkscape:connector-curvature="0"
   style="fill:#959dc1" />

	<path
   id="path2283"
   d="m 301.674,9.117 c 0,-4.436 3.599,-8.048 8.043,-8.048 4.438,0 8.042,3.612 8.042,8.048 0,4.435 -3.604,8.052 -8.042,8.052 -4.445,0 -8.043,-3.617 -8.043,-8.052"
   inkscape:connector-curvature="0"
   style="fill:#969ec1" />

	<path
   id="path2285"
   d="m 301.71,9.117 c 0,-4.421 3.584,-7.997 8.007,-7.997 4.423,0 8.003,3.576 8.003,7.997 0,4.423 -3.58,8.007 -8.003,8.007 -4.423,0 -8.007,-3.583 -8.007,-8.007"
   inkscape:connector-curvature="0"
   style="fill:#969ec2" />

	<path
   id="path2287"
   d="m 301.745,9.117 c 0,-4.402 3.572,-7.959 7.972,-7.959 4.4,0 7.966,3.557 7.966,7.959 0,4.405 -3.565,7.96 -7.966,7.96 -4.4,0 -7.972,-3.555 -7.972,-7.96"
   inkscape:connector-curvature="0"
   style="fill:#979fc2" />

	<path
   id="path2289"
   d="m 301.785,9.117 c 0,-4.375 3.547,-7.922 7.932,-7.922 4.37,0 7.923,3.548 7.923,7.922 0,4.377 -3.553,7.925 -7.923,7.925 -4.377,0 -7.932,-3.548 -7.932,-7.925"
   inkscape:connector-curvature="0"
   style="fill:#98a0c3" />

	<path
   id="path2291"
   d="m 301.824,9.117 c 0,-4.363 3.522,-7.889 7.893,-7.889 4.354,0 7.886,3.522 7.886,7.889 0,4.358 -3.526,7.893 -7.886,7.893 -4.368,0 -7.893,-3.531 -7.893,-7.893"
   inkscape:connector-curvature="0"
   style="fill:#99a1c3" />

	<path
   id="path2293"
   d="m 301.86,9.117 c 0,-4.329 3.513,-7.857 7.855,-7.857 4.335,0 7.852,3.524 7.852,7.857 0,4.333 -3.512,7.855 -7.852,7.855 -4.342,10e-4 -7.855,-3.517 -7.855,-7.855"
   inkscape:connector-curvature="0"
   style="fill:#9aa1c4" />

	<path
   id="path2295"
   d="m 301.896,9.117 c 0,-4.314 3.504,-7.821 7.82,-7.821 4.311,0 7.811,3.507 7.811,7.821 0,4.326 -3.5,7.82 -7.811,7.82 -4.317,0 -7.82,-3.494 -7.82,-7.82"
   inkscape:connector-curvature="0"
   style="fill:#9ba2c4" />

	<path
   id="path2297"
   d="m 301.937,9.117 c 0,-4.293 3.48,-7.776 7.78,-7.776 4.296,0 7.782,3.482 7.782,7.776 0,4.3 -3.486,7.778 -7.782,7.778 -4.3,0.001 -7.78,-3.478 -7.78,-7.778"
   inkscape:connector-curvature="0"
   style="fill:#9ca3c5" />

	<path
   id="path2299"
   d="m 301.97,9.117 c 0,-4.277 3.467,-7.748 7.747,-7.748 4.271,0 7.735,3.475 7.735,7.748 0,4.28 -3.465,7.747 -7.735,7.747 -4.28,0.004 -7.747,-3.467 -7.747,-7.747"
   inkscape:connector-curvature="0"
   style="fill:#9da4c5" />

	<path
   id="path2301"
   d="m 302.007,9.117 c 0,-4.258 3.453,-7.707 7.71,-7.707 4.255,0 7.699,3.449 7.699,7.707 0,4.26 -3.444,7.711 -7.699,7.711 -4.257,0 -7.71,-3.451 -7.71,-7.711"
   inkscape:connector-curvature="0"
   style="fill:#9ea4c6" />

	<path
   id="path2303"
   d="m 302.044,9.117 c 0,-4.232 3.432,-7.662 7.673,-7.662 4.231,0 7.66,3.43 7.66,7.662 0,4.234 -3.429,7.672 -7.66,7.672 -4.241,10e-4 -7.673,-3.437 -7.673,-7.672"
   inkscape:connector-curvature="0"
   style="fill:#9ea5c7" />

	<path
   id="path2305"
   d="m 302.079,9.117 c 0,-4.211 3.421,-7.625 7.638,-7.625 4.212,0 7.624,3.413 7.624,7.625 0,4.222 -3.412,7.637 -7.624,7.637 -4.217,0 -7.638,-3.415 -7.638,-7.637"
   inkscape:connector-curvature="0"
   style="fill:#9fa6c7" />

	<path
   id="path2307"
   d="m 302.11,9.117 c 0,-4.188 3.412,-7.589 7.595,-7.589 4.198,0 7.595,3.4 7.595,7.589 0,4.19 -3.396,7.591 -7.595,7.591 -4.183,0 -7.595,-3.401 -7.595,-7.591"
   inkscape:connector-curvature="0"
   style="fill:#a0a7c8" />

	<path
   id="path2309"
   d="m 302.159,9.117 c 0,-4.166 3.372,-7.551 7.558,-7.551 4.164,0 7.55,3.385 7.55,7.551 0,4.178 -3.386,7.563 -7.55,7.563 -4.186,0.004 -7.558,-3.381 -7.558,-7.563"
   inkscape:connector-curvature="0"
   style="fill:#a1a8c8" />

	<path
   id="path2311"
   d="m 302.194,9.111 c 0,-4.144 3.365,-7.514 7.521,-7.514 4.152,0 7.508,3.37 7.508,7.514 0,4.16 -3.354,7.528 -7.508,7.528 -4.155,0 -7.521,-3.368 -7.521,-7.528"
   inkscape:connector-curvature="0"
   style="fill:#a2a8c9" />

	<path
   id="path2313"
   d="m 302.231,9.111 c 0,-4.128 3.348,-7.478 7.484,-7.478 4.127,0 7.479,3.349 7.479,7.478 0,4.135 -3.352,7.492 -7.479,7.492 -4.136,10e-4 -7.484,-3.356 -7.484,-7.492"
   inkscape:connector-curvature="0"
   style="fill:#a3a9c9" />

	<path
   id="path2315"
   d="m 317.153,9.111 c 0,4.123 -3.325,7.446 -7.438,7.446 -4.121,0 -7.447,-3.323 -7.447,-7.446 0,-4.108 3.326,-7.439 7.447,-7.439 4.113,0 7.438,3.331 7.438,7.439"
   inkscape:connector-curvature="0"
   style="fill:#a4aaca" />

	<path
   id="path2317"
   d="m 302.345,9.111 c 0,-4.055 3.299,-7.358 7.372,-7.358 4.071,0 7.373,3.303 7.373,7.358 0,4.079 -3.302,7.378 -7.373,7.378 -4.073,0 -7.372,-3.299 -7.372,-7.378"
   inkscape:connector-curvature="0"
   style="fill:#a3a9c9" />

	<path
   id="path2319"
   d="m 302.431,9.111 c 0,-4.011 3.254,-7.285 7.286,-7.285 4.024,0 7.282,3.274 7.282,7.285 0,4.033 -3.258,7.301 -7.282,7.301 -4.041,0 -7.286,-3.268 -7.286,-7.301"
   inkscape:connector-curvature="0"
   style="fill:#a2a8c9" />

	<path
   id="path2321"
   d="m 302.497,9.111 c 0,-3.985 3.225,-7.21 7.22,-7.21 3.984,0 7.212,3.229 7.212,7.21 0,3.989 -3.228,7.227 -7.212,7.227 -3.995,0.004 -7.22,-3.234 -7.22,-7.227"
   inkscape:connector-curvature="0"
   style="fill:#a1a8c8" />

	<path
   id="path2323"
   d="m 302.572,9.111 c 0,-3.938 3.202,-7.135 7.145,-7.135 3.943,0 7.142,3.198 7.142,7.135 0,3.956 -3.197,7.149 -7.142,7.149 -3.943,10e-4 -7.145,-3.193 -7.145,-7.149"
   inkscape:connector-curvature="0"
   style="fill:#a0a7c7" />

	<path
   id="path2325"
   d="m 302.651,9.111 c 0,-3.892 3.158,-7.053 7.064,-7.053 3.905,0 7.055,3.161 7.055,7.053 0,3.916 -3.148,7.067 -7.055,7.067 -3.903,10e-4 -7.064,-3.151 -7.064,-7.067"
   inkscape:connector-curvature="0"
   style="fill:#9fa6c7" />

	<path
   id="path2327"
   d="m 302.724,9.111 c 0,-3.848 3.127,-6.976 6.993,-6.976 3.854,0 6.983,3.128 6.983,6.976 0,3.87 -3.131,6.998 -6.983,6.998 -3.866,0 -6.993,-3.128 -6.993,-6.998"
   inkscape:connector-curvature="0"
   style="fill:#9ea5c6" />

	<path
   id="path2329"
   d="m 302.804,9.111 c 0,-3.814 3.09,-6.903 6.913,-6.903 3.81,0 6.9,3.092 6.9,6.903 0,3.823 -3.101,6.925 -6.9,6.925 -3.823,0 -6.913,-3.102 -6.913,-6.925"
   inkscape:connector-curvature="0"
   style="fill:#9da4c6" />

	<path
   id="path2331"
   d="m 302.879,9.111 c 0,-3.771 3.06,-6.837 6.838,-6.837 3.771,0 6.823,3.066 6.823,6.837 0,3.785 -3.053,6.843 -6.823,6.843 -3.779,0 -6.838,-3.058 -6.838,-6.843"
   inkscape:connector-curvature="0"
   style="fill:#9ca3c5" />

	<path
   id="path2333"
   d="m 302.954,9.111 c 0,-3.729 3.02,-6.755 6.763,-6.755 3.737,0 6.763,3.027 6.763,6.755 0,3.741 -3.024,6.77 -6.763,6.77 -3.743,0 -6.763,-3.029 -6.763,-6.77"
   inkscape:connector-curvature="0"
   style="fill:#9ba2c5" />

	<path
   id="path2335"
   d="m 303.028,9.111 c 0,-3.685 2.988,-6.678 6.688,-6.678 3.689,0 6.681,2.989 6.681,6.678 0,3.699 -2.984,6.684 -6.681,6.684 -3.699,0 -6.688,-2.984 -6.688,-6.684"
   inkscape:connector-curvature="0"
   style="fill:#9aa2c4" />

	<path
   id="path2337"
   d="m 303.114,9.111 c 0,-3.644 2.947,-6.596 6.603,-6.596 3.65,0 6.603,2.957 6.603,6.596 0,3.656 -2.955,6.61 -6.603,6.61 -3.659,10e-4 -6.603,-2.95 -6.603,-6.61"
   inkscape:connector-curvature="0"
   style="fill:#9aa1c4" />

	<path
   id="path2339"
   d="m 303.183,9.111 c 0,-3.599 2.926,-6.527 6.534,-6.527 3.603,0 6.522,2.928 6.522,6.527 0,3.613 -2.92,6.535 -6.522,6.535 -3.611,0 -6.534,-2.921 -6.534,-6.535"
   inkscape:connector-curvature="0"
   style="fill:#99a0c3" />

	<path
   id="path2341"
   d="m 303.265,9.111 c 0,-3.554 2.881,-6.456 6.452,-6.456 3.562,0 6.451,2.902 6.451,6.456 0,3.57 -2.89,6.461 -6.451,6.461 -3.571,0 -6.452,-2.891 -6.452,-6.461"
   inkscape:connector-curvature="0"
   style="fill:#989fc2" />

	<path
   id="path2343"
   d="m 303.336,9.111 c 0,-3.518 2.849,-6.368 6.381,-6.368 3.517,0 6.38,2.85 6.38,6.368 0,3.528 -2.863,6.384 -6.38,6.384 -3.532,0.004 -6.381,-2.855 -6.381,-6.384"
   inkscape:connector-curvature="0"
   style="fill:#979ec2" />

	<path
   id="path2345"
   d="m 303.407,9.111 c 0,-3.477 2.824,-6.3 6.31,-6.3 3.479,0 6.308,2.82 6.308,6.3 0,3.484 -2.828,6.314 -6.308,6.314 -3.486,10e-4 -6.31,-2.826 -6.31,-6.314"
   inkscape:connector-curvature="0"
   style="fill:#969ec1" />

	<path
   id="path2347"
   d="m 303.485,9.111 c 0,-3.428 2.785,-6.218 6.23,-6.218 3.438,0 6.221,2.793 6.221,6.218 0,3.45 -2.783,6.232 -6.221,6.232 -3.444,10e-4 -6.23,-2.781 -6.23,-6.232"
   inkscape:connector-curvature="0"
   style="fill:#959dc1" />

	<path
   id="path2349"
   d="m 315.865,9.111 c 0,3.407 -2.765,6.155 -6.148,6.155 -3.403,0 -6.153,-2.749 -6.153,-6.155 0,-3.383 2.75,-6.141 6.153,-6.141 3.387,0 6.148,2.758 6.148,6.141"
   inkscape:connector-curvature="0"
   style="fill:#949cc0" />

	<g
   id="g2372"
   style="opacity:0.51999996">
		<g
   id="g2370">
			<g
   id="g2368">
				<g
   id="g2366">
					<g
   id="g2364">
						<defs
   id="defs2352">
							<path
   d="m 317.806,9.117 c 0,4.471 -3.625,8.093 -8.089,8.093 -4.46,0 -8.092,-3.626 -8.092,-8.093 0,-4.464 3.632,-8.09 8.092,-8.09 4.464,0 8.089,3.626 8.089,8.09"
   id="path2639"
   inkscape:connector-curvature="0" />

						</defs>

						<clipPath
   id="SVGID_11_">
							<use
   id="use2354"
   overflow="visible"
   xlink:href="#SVGID_10_"
   style="overflow:visible"
   x="0"
   y="0"
   width="100%"
   height="100%" />

						</clipPath>

						
							<linearGradient
   gradientTransform="matrix(1.4806,1.6443,1.6443,-1.4806,-248.366,1260.2246)"
   y2="565.78809"
   x2="-247.75999"
   y1="565.78809"
   x1="-255.0757"
   gradientUnits="userSpaceOnUse"
   id="SVGID_12_">
							<stop
   id="stop2357"
   style="stop-color:#FFFFFF"
   offset="0" />

							<stop
   id="stop2359"
   style="stop-color:#234A88"
   offset="1" />

						</linearGradient>

						<polygon
   id="polygon2362"
   points="310.56,-7.021 325.854,9.959 308.864,25.25 293.575,8.271 "
   clip-path="url(#SVGID_11_)"
   style="fill:url(#SVGID_12_)" />

					</g>

				</g>

			</g>

		</g>

	</g>

	<path
   id="path2374"
   d="M 362.87,98.168 355.751,95.4 c -6.186,-2.37 -13.827,-6.443 -13.827,-14.223 0,-8.702 8.694,-15.197 16.595,-15.197 7.506,0 12.248,3.157 15.94,9.355 l 9.869,-5.927 c -5.406,-9.611 -14.49,-15.012 -25.54,-15.012 -15.021,0 -29.244,10.711 -29.244,26.78 0,13.825 10.281,20.284 21.602,25.156 l 6.856,2.888 c 8.556,3.557 17.119,8.165 17.119,18.838 0,10.4 -7.646,19.354 -18.306,19.354 -9.142,0 -16.824,-5.801 -18.758,-14.336 l -11.59,4.297 c 4.137,12.745 15.37,21.627 29.284,21.627 17.777,0 31.73,-12.896 31.73,-30.939 0,-16.592 -10.532,-24.363 -24.611,-29.893"
   inkscape:connector-curvature="0"
   style="fill:#0c3875" />

	<path
   id="path2376"
   d="M 433.483,98.168 426.365,95.4 c -6.183,-2.37 -13.825,-6.443 -13.825,-14.223 0,-8.702 8.693,-15.197 16.598,-15.197 7.506,0 12.254,3.157 15.938,9.355 l 9.871,-5.927 c -5.4,-9.611 -14.48,-15.012 -25.542,-15.012 -15.015,0 -29.235,10.711 -29.235,26.78 0,13.825 10.273,20.284 21.59,25.156 l 6.854,2.888 c 8.562,3.557 17.123,8.165 17.123,18.838 0,10.4 -7.641,19.354 -18.299,19.354 -9.082,0 -16.728,-5.725 -18.724,-14.168 l -11.573,4.295 c 4.172,12.647 15.38,21.461 29.224,21.461 17.794,0 31.747,-12.896 31.747,-30.939 10e-4,-16.592 -10.531,-24.363 -24.629,-29.893"
   inkscape:connector-curvature="0"
   style="fill:#0c3875" />

	<path
   id="path2378"
   d="m 459.676,59.201 h -2.198 v 5.64 h -0.933 v -5.64 h -2.212 v -0.94 h 5.348 v 0.94 z m 8.253,5.639 h -0.938 V 59.2 h -0.031 l -2.258,5.64 h -0.606 l -2.183,-5.64 h -0.037 v 5.64 h -0.931 v -6.58 h 1.576 l 1.893,4.733 1.958,-4.733 h 1.565 v 6.58 z"
   inkscape:connector-curvature="0"
   style="fill:#0c3875" />

</g>
  </g>
</svg>
